<svg xmlns="http://www.w3.org/2000/svg" version="1.1" xmlns:xlink="http://www.w3.org/1999/xlink" xmlns:svgjs="http://svgjs.dev/svgjs" viewBox="0 0 800 800" width="800" height="800"><g stroke-width="0.75" stroke="hsla(0, 0%, 0%, 1.00)" fill="none"><rect width="133.33333333333334" height="16" x="0" y="0"></rect><rect width="133.33333333333334" height="16" x="133.33333333333334" y="0"></rect><rect width="133.33333333333334" height="16" x="266.6666666666667" y="0"></rect><rect width="133.33333333333334" height="16" x="400" y="0"></rect><rect width="133.33333333333334" height="16" x="533.3333333333334" y="0"></rect><rect width="133.33333333333334" height="16" x="666.6666666666667" y="0"></rect><rect width="133.33333333333334" height="16" x="800.0000000000001" y="0"></rect><rect width="133.33333333333334" height="16" x="0" y="16"></rect><rect width="133.33333333333334" height="16" x="133.33333333333334" y="16"></rect><rect width="133.33333333333334" height="16" x="266.6666666666667" y="16"></rect><rect width="133.33333333333334" height="16" x="400" y="16"></rect><rect width="133.33333333333334" height="16" x="533.3333333333334" y="16"></rect><rect width="133.33333333333334" height="16" x="666.6666666666667" y="16"></rect><rect width="133.33333333333334" height="16" x="800.0000000000001" y="16"></rect><rect width="133.33333333333334" height="16" x="0" y="32"></rect><rect width="133.33333333333334" height="16" x="133.33333333333334" y="32"></rect><rect width="133.33333333333334" height="16" x="266.6666666666667" y="32"></rect><rect width="133.33333333333334" height="16" x="400" y="32"></rect><rect width="133.33333333333334" height="16" x="533.3333333333334" y="32"></rect><rect width="133.33333333333334" height="16" x="666.6666666666667" y="32"></rect><rect width="133.33333333333334" height="16" x="800.0000000000001" y="32"></rect><rect width="133.33333333333334" height="16" x="0" y="48"></rect><rect width="133.33333333333334" height="16" x="133.33333333333334" y="48"></rect><rect width="133.33333333333334" height="16" x="266.6666666666667" y="48"></rect><rect width="133.33333333333334" height="16" x="400" y="48"></rect><rect width="133.33333333333334" height="16" x="533.3333333333334" y="48"></rect><rect width="133.33333333333334" height="16" x="666.6666666666667" y="48"></rect><rect width="133.33333333333334" height="16" x="800.0000000000001" y="48"></rect><rect width="133.33333333333334" height="16" x="0" y="64"></rect><rect width="133.33333333333334" height="16" x="133.33333333333334" y="64"></rect><rect width="133.33333333333334" height="16" x="266.6666666666667" y="64"></rect><rect width="133.33333333333334" height="16" x="400" y="64"></rect><rect width="133.33333333333334" height="16" x="533.3333333333334" y="64"></rect><rect width="133.33333333333334" height="16" x="666.6666666666667" y="64"></rect><rect width="133.33333333333334" height="16" x="800.0000000000001" y="64"></rect><rect width="133.33333333333334" height="16" x="0" y="80"></rect><rect width="133.33333333333334" height="16" x="133.33333333333334" y="80"></rect><rect width="133.33333333333334" height="16" x="266.6666666666667" y="80"></rect><rect width="133.33333333333334" height="16" x="400" y="80"></rect><rect width="133.33333333333334" height="16" x="533.3333333333334" y="80"></rect><rect width="133.33333333333334" height="16" x="666.6666666666667" y="80"></rect><rect width="133.33333333333334" height="16" x="800.0000000000001" y="80"></rect><rect width="133.33333333333334" height="16" x="0" y="96"></rect><rect width="133.33333333333334" height="16" x="133.33333333333334" y="96"></rect><rect width="133.33333333333334" height="16" x="266.6666666666667" y="96"></rect><rect width="133.33333333333334" height="16" x="400" y="96"></rect><rect width="133.33333333333334" height="16" x="533.3333333333334" y="96"></rect><rect width="133.33333333333334" height="16" x="666.6666666666667" y="96"></rect><rect width="133.33333333333334" height="16" x="800.0000000000001" y="96"></rect><rect width="133.33333333333334" height="16" x="0" y="112"></rect><rect width="133.33333333333334" height="16" x="133.33333333333334" y="112"></rect><rect width="133.33333333333334" height="16" x="266.6666666666667" y="112"></rect><rect width="133.33333333333334" height="16" x="400" y="112"></rect><rect width="133.33333333333334" height="16" x="533.3333333333334" y="112"></rect><rect width="133.33333333333334" height="16" x="666.6666666666667" y="112"></rect><rect width="133.33333333333334" height="16" x="800.0000000000001" y="112"></rect><rect width="133.33333333333334" height="16" x="0" y="128"></rect><rect width="133.33333333333334" height="16" x="133.33333333333334" y="128"></rect><rect width="133.33333333333334" height="16" x="266.6666666666667" y="128"></rect><rect width="133.33333333333334" height="16" x="400" y="128"></rect><rect width="133.33333333333334" height="16" x="533.3333333333334" y="128"></rect><rect width="133.33333333333334" height="16" x="666.6666666666667" y="128"></rect><rect width="133.33333333333334" height="16" x="800.0000000000001" y="128"></rect><rect width="133.33333333333334" height="16" x="0" y="144"></rect><rect width="133.33333333333334" height="16" x="133.33333333333334" y="144"></rect><rect width="133.33333333333334" height="16" x="266.6666666666667" y="144"></rect><rect width="133.33333333333334" height="16" x="400" y="144"></rect><rect width="133.33333333333334" height="16" x="533.3333333333334" y="144"></rect><rect width="133.33333333333334" height="16" x="666.6666666666667" y="144"></rect><rect width="133.33333333333334" height="16" x="800.0000000000001" y="144"></rect><rect width="133.33333333333334" height="16" x="0" y="160"></rect><rect width="133.33333333333334" height="16" x="133.33333333333334" y="160"></rect><rect width="133.33333333333334" height="16" x="266.6666666666667" y="160"></rect><rect width="133.33333333333334" height="16" x="400" y="160"></rect><rect width="133.33333333333334" height="16" x="533.3333333333334" y="160"></rect><rect width="133.33333333333334" height="16" x="666.6666666666667" y="160"></rect><rect width="133.33333333333334" height="16" x="800.0000000000001" y="160"></rect><rect width="133.33333333333334" height="16" x="0" y="176"></rect><rect width="133.33333333333334" height="16" x="133.33333333333334" y="176"></rect><rect width="133.33333333333334" height="16" x="266.6666666666667" y="176"></rect><rect width="133.33333333333334" height="16" x="400" y="176"></rect><rect width="133.33333333333334" height="16" x="533.3333333333334" y="176"></rect><rect width="133.33333333333334" height="16" x="666.6666666666667" y="176"></rect><rect width="133.33333333333334" height="16" x="800.0000000000001" y="176"></rect><rect width="133.33333333333334" height="16" x="0" y="192"></rect><rect width="133.33333333333334" height="16" x="133.33333333333334" y="192"></rect><rect width="133.33333333333334" height="16" x="266.6666666666667" y="192"></rect><rect width="133.33333333333334" height="16" x="400" y="192"></rect><rect width="133.33333333333334" height="16" x="533.3333333333334" y="192"></rect><rect width="133.33333333333334" height="16" x="666.6666666666667" y="192"></rect><rect width="133.33333333333334" height="16" x="800.0000000000001" y="192"></rect><rect width="133.33333333333334" height="16" x="0" y="208"></rect><rect width="133.33333333333334" height="16" x="133.33333333333334" y="208"></rect><rect width="133.33333333333334" height="16" x="266.6666666666667" y="208"></rect><rect width="133.33333333333334" height="16" x="400" y="208"></rect><rect width="133.33333333333334" height="16" x="533.3333333333334" y="208"></rect><rect width="133.33333333333334" height="16" x="666.6666666666667" y="208"></rect><rect width="133.33333333333334" height="16" x="800.0000000000001" y="208"></rect><rect width="133.33333333333334" height="16" x="0" y="224"></rect><rect width="133.33333333333334" height="16" x="133.33333333333334" y="224"></rect><rect width="133.33333333333334" height="16" x="266.6666666666667" y="224"></rect><rect width="133.33333333333334" height="16" x="400" y="224"></rect><rect width="133.33333333333334" height="16" x="533.3333333333334" y="224"></rect><rect width="133.33333333333334" height="16" x="666.6666666666667" y="224"></rect><rect width="133.33333333333334" height="16" x="800.0000000000001" y="224"></rect><rect width="133.33333333333334" height="16" x="0" y="240"></rect><rect width="133.33333333333334" height="16" x="133.33333333333334" y="240"></rect><rect width="133.33333333333334" height="16" x="266.6666666666667" y="240"></rect><rect width="133.33333333333334" height="16" x="400" y="240"></rect><rect width="133.33333333333334" height="16" x="533.3333333333334" y="240"></rect><rect width="133.33333333333334" height="16" x="666.6666666666667" y="240"></rect><rect width="133.33333333333334" height="16" x="800.0000000000001" y="240"></rect><rect width="133.33333333333334" height="16" x="0" y="256"></rect><rect width="133.33333333333334" height="16" x="133.33333333333334" y="256"></rect><rect width="133.33333333333334" height="16" x="266.6666666666667" y="256"></rect><rect width="133.33333333333334" height="16" x="400" y="256"></rect><rect width="133.33333333333334" height="16" x="533.3333333333334" y="256"></rect><rect width="133.33333333333334" height="16" x="666.6666666666667" y="256"></rect><rect width="133.33333333333334" height="16" x="800.0000000000001" y="256"></rect><rect width="133.33333333333334" height="16" x="0" y="272"></rect><rect width="133.33333333333334" height="16" x="133.33333333333334" y="272"></rect><rect width="133.33333333333334" height="16" x="266.6666666666667" y="272"></rect><rect width="133.33333333333334" height="16" x="400" y="272"></rect><rect width="133.33333333333334" height="16" x="533.3333333333334" y="272"></rect><rect width="133.33333333333334" height="16" x="666.6666666666667" y="272"></rect><rect width="133.33333333333334" height="16" x="800.0000000000001" y="272"></rect><rect width="133.33333333333334" height="16" x="0" y="288"></rect><rect width="133.33333333333334" height="16" x="133.33333333333334" y="288"></rect><rect width="133.33333333333334" height="16" x="266.6666666666667" y="288"></rect><rect width="133.33333333333334" height="16" x="400" y="288"></rect><rect width="133.33333333333334" height="16" x="533.3333333333334" y="288"></rect><rect width="133.33333333333334" height="16" x="666.6666666666667" y="288"></rect><rect width="133.33333333333334" height="16" x="800.0000000000001" y="288"></rect><rect width="133.33333333333334" height="16" x="0" y="304"></rect><rect width="133.33333333333334" height="16" x="133.33333333333334" y="304"></rect><rect width="133.33333333333334" height="16" x="266.6666666666667" y="304"></rect><rect width="133.33333333333334" height="16" x="400" y="304"></rect><rect width="133.33333333333334" height="16" x="533.3333333333334" y="304"></rect><rect width="133.33333333333334" height="16" x="666.6666666666667" y="304"></rect><rect width="133.33333333333334" height="16" x="800.0000000000001" y="304"></rect><rect width="133.33333333333334" height="16" x="0" y="320"></rect><rect width="133.33333333333334" height="16" x="133.33333333333334" y="320"></rect><rect width="133.33333333333334" height="16" x="266.6666666666667" y="320"></rect><rect width="133.33333333333334" height="16" x="400" y="320"></rect><rect width="133.33333333333334" height="16" x="533.3333333333334" y="320"></rect><rect width="133.33333333333334" height="16" x="666.6666666666667" y="320"></rect><rect width="133.33333333333334" height="16" x="800.0000000000001" y="320"></rect><rect width="133.33333333333334" height="16" x="0" y="336"></rect><rect width="133.33333333333334" height="16" x="133.33333333333334" y="336"></rect><rect width="133.33333333333334" height="16" x="266.6666666666667" y="336"></rect><rect width="133.33333333333334" height="16" x="400" y="336"></rect><rect width="133.33333333333334" height="16" x="533.3333333333334" y="336"></rect><rect width="133.33333333333334" height="16" x="666.6666666666667" y="336"></rect><rect width="133.33333333333334" height="16" x="800.0000000000001" y="336"></rect><rect width="133.33333333333334" height="16" x="0" y="352"></rect><rect width="133.33333333333334" height="16" x="133.33333333333334" y="352"></rect><rect width="133.33333333333334" height="16" x="266.6666666666667" y="352"></rect><rect width="133.33333333333334" height="16" x="400" y="352"></rect><rect width="133.33333333333334" height="16" x="533.3333333333334" y="352"></rect><rect width="133.33333333333334" height="16" x="666.6666666666667" y="352"></rect><rect width="133.33333333333334" height="16" x="800.0000000000001" y="352"></rect><rect width="133.33333333333334" height="16" x="0" y="368"></rect><rect width="133.33333333333334" height="16" x="133.33333333333334" y="368"></rect><rect width="133.33333333333334" height="16" x="266.6666666666667" y="368"></rect><rect width="133.33333333333334" height="16" x="400" y="368"></rect><rect width="133.33333333333334" height="16" x="533.3333333333334" y="368"></rect><rect width="133.33333333333334" height="16" x="666.6666666666667" y="368"></rect><rect width="133.33333333333334" height="16" x="800.0000000000001" y="368"></rect><rect width="133.33333333333334" height="16" x="0" y="384"></rect><rect width="133.33333333333334" height="16" x="133.33333333333334" y="384"></rect><rect width="133.33333333333334" height="16" x="266.6666666666667" y="384"></rect><rect width="133.33333333333334" height="16" x="400" y="384"></rect><rect width="133.33333333333334" height="16" x="533.3333333333334" y="384"></rect><rect width="133.33333333333334" height="16" x="666.6666666666667" y="384"></rect><rect width="133.33333333333334" height="16" x="800.0000000000001" y="384"></rect><rect width="133.33333333333334" height="16" x="0" y="400"></rect><rect width="133.33333333333334" height="16" x="133.33333333333334" y="400"></rect><rect width="133.33333333333334" height="16" x="266.6666666666667" y="400"></rect><rect width="133.33333333333334" height="16" x="400" y="400"></rect><rect width="133.33333333333334" height="16" x="533.3333333333334" y="400"></rect><rect width="133.33333333333334" height="16" x="666.6666666666667" y="400"></rect><rect width="133.33333333333334" height="16" x="800.0000000000001" y="400"></rect><rect width="133.33333333333334" height="16" x="0" y="416"></rect><rect width="133.33333333333334" height="16" x="133.33333333333334" y="416"></rect><rect width="133.33333333333334" height="16" x="266.6666666666667" y="416"></rect><rect width="133.33333333333334" height="16" x="400" y="416"></rect><rect width="133.33333333333334" height="16" x="533.3333333333334" y="416"></rect><rect width="133.33333333333334" height="16" x="666.6666666666667" y="416"></rect><rect width="133.33333333333334" height="16" x="800.0000000000001" y="416"></rect><rect width="133.33333333333334" height="16" x="0" y="432"></rect><rect width="133.33333333333334" height="16" x="133.33333333333334" y="432"></rect><rect width="133.33333333333334" height="16" x="266.6666666666667" y="432"></rect><rect width="133.33333333333334" height="16" x="400" y="432"></rect><rect width="133.33333333333334" height="16" x="533.3333333333334" y="432"></rect><rect width="133.33333333333334" height="16" x="666.6666666666667" y="432"></rect><rect width="133.33333333333334" height="16" x="800.0000000000001" y="432"></rect><rect width="133.33333333333334" height="16" x="0" y="448"></rect><rect width="133.33333333333334" height="16" x="133.33333333333334" y="448"></rect><rect width="133.33333333333334" height="16" x="266.6666666666667" y="448"></rect><rect width="133.33333333333334" height="16" x="400" y="448"></rect><rect width="133.33333333333334" height="16" x="533.3333333333334" y="448"></rect><rect width="133.33333333333334" height="16" x="666.6666666666667" y="448"></rect><rect width="133.33333333333334" height="16" x="800.0000000000001" y="448"></rect><rect width="133.33333333333334" height="16" x="0" y="464"></rect><rect width="133.33333333333334" height="16" x="133.33333333333334" y="464"></rect><rect width="133.33333333333334" height="16" x="266.6666666666667" y="464"></rect><rect width="133.33333333333334" height="16" x="400" y="464"></rect><rect width="133.33333333333334" height="16" x="533.3333333333334" y="464"></rect><rect width="133.33333333333334" height="16" x="666.6666666666667" y="464"></rect><rect width="133.33333333333334" height="16" x="800.0000000000001" y="464"></rect><rect width="133.33333333333334" height="16" x="0" y="480"></rect><rect width="133.33333333333334" height="16" x="133.33333333333334" y="480"></rect><rect width="133.33333333333334" height="16" x="266.6666666666667" y="480"></rect><rect width="133.33333333333334" height="16" x="400" y="480"></rect><rect width="133.33333333333334" height="16" x="533.3333333333334" y="480"></rect><rect width="133.33333333333334" height="16" x="666.6666666666667" y="480"></rect><rect width="133.33333333333334" height="16" x="800.0000000000001" y="480"></rect><rect width="133.33333333333334" height="16" x="0" y="496"></rect><rect width="133.33333333333334" height="16" x="133.33333333333334" y="496"></rect><rect width="133.33333333333334" height="16" x="266.6666666666667" y="496"></rect><rect width="133.33333333333334" height="16" x="400" y="496"></rect><rect width="133.33333333333334" height="16" x="533.3333333333334" y="496"></rect><rect width="133.33333333333334" height="16" x="666.6666666666667" y="496"></rect><rect width="133.33333333333334" height="16" x="800.0000000000001" y="496"></rect><rect width="133.33333333333334" height="16" x="0" y="512"></rect><rect width="133.33333333333334" height="16" x="133.33333333333334" y="512"></rect><rect width="133.33333333333334" height="16" x="266.6666666666667" y="512"></rect><rect width="133.33333333333334" height="16" x="400" y="512"></rect><rect width="133.33333333333334" height="16" x="533.3333333333334" y="512"></rect><rect width="133.33333333333334" height="16" x="666.6666666666667" y="512"></rect><rect width="133.33333333333334" height="16" x="800.0000000000001" y="512"></rect><rect width="133.33333333333334" height="16" x="0" y="528"></rect><rect width="133.33333333333334" height="16" x="133.33333333333334" y="528"></rect><rect width="133.33333333333334" height="16" x="266.6666666666667" y="528"></rect><rect width="133.33333333333334" height="16" x="400" y="528"></rect><rect width="133.33333333333334" height="16" x="533.3333333333334" y="528"></rect><rect width="133.33333333333334" height="16" x="666.6666666666667" y="528"></rect><rect width="133.33333333333334" height="16" x="800.0000000000001" y="528"></rect><rect width="133.33333333333334" height="16" x="0" y="544"></rect><rect width="133.33333333333334" height="16" x="133.33333333333334" y="544"></rect><rect width="133.33333333333334" height="16" x="266.6666666666667" y="544"></rect><rect width="133.33333333333334" height="16" x="400" y="544"></rect><rect width="133.33333333333334" height="16" x="533.3333333333334" y="544"></rect><rect width="133.33333333333334" height="16" x="666.6666666666667" y="544"></rect><rect width="133.33333333333334" height="16" x="800.0000000000001" y="544"></rect><rect width="133.33333333333334" height="16" x="0" y="560"></rect><rect width="133.33333333333334" height="16" x="133.33333333333334" y="560"></rect><rect width="133.33333333333334" height="16" x="266.6666666666667" y="560"></rect><rect width="133.33333333333334" height="16" x="400" y="560"></rect><rect width="133.33333333333334" height="16" x="533.3333333333334" y="560"></rect><rect width="133.33333333333334" height="16" x="666.6666666666667" y="560"></rect><rect width="133.33333333333334" height="16" x="800.0000000000001" y="560"></rect><rect width="133.33333333333334" height="16" x="0" y="576"></rect><rect width="133.33333333333334" height="16" x="133.33333333333334" y="576"></rect><rect width="133.33333333333334" height="16" x="266.6666666666667" y="576"></rect><rect width="133.33333333333334" height="16" x="400" y="576"></rect><rect width="133.33333333333334" height="16" x="533.3333333333334" y="576"></rect><rect width="133.33333333333334" height="16" x="666.6666666666667" y="576"></rect><rect width="133.33333333333334" height="16" x="800.0000000000001" y="576"></rect><rect width="133.33333333333334" height="16" x="0" y="592"></rect><rect width="133.33333333333334" height="16" x="133.33333333333334" y="592"></rect><rect width="133.33333333333334" height="16" x="266.6666666666667" y="592"></rect><rect width="133.33333333333334" height="16" x="400" y="592"></rect><rect width="133.33333333333334" height="16" x="533.3333333333334" y="592"></rect><rect width="133.33333333333334" height="16" x="666.6666666666667" y="592"></rect><rect width="133.33333333333334" height="16" x="800.0000000000001" y="592"></rect><rect width="133.33333333333334" height="16" x="0" y="608"></rect><rect width="133.33333333333334" height="16" x="133.33333333333334" y="608"></rect><rect width="133.33333333333334" height="16" x="266.6666666666667" y="608"></rect><rect width="133.33333333333334" height="16" x="400" y="608"></rect><rect width="133.33333333333334" height="16" x="533.3333333333334" y="608"></rect><rect width="133.33333333333334" height="16" x="666.6666666666667" y="608"></rect><rect width="133.33333333333334" height="16" x="800.0000000000001" y="608"></rect><rect width="133.33333333333334" height="16" x="0" y="624"></rect><rect width="133.33333333333334" height="16" x="133.33333333333334" y="624"></rect><rect width="133.33333333333334" height="16" x="266.6666666666667" y="624"></rect><rect width="133.33333333333334" height="16" x="400" y="624"></rect><rect width="133.33333333333334" height="16" x="533.3333333333334" y="624"></rect><rect width="133.33333333333334" height="16" x="666.6666666666667" y="624"></rect><rect width="133.33333333333334" height="16" x="800.0000000000001" y="624"></rect><rect width="133.33333333333334" height="16" x="0" y="640"></rect><rect width="133.33333333333334" height="16" x="133.33333333333334" y="640"></rect><rect width="133.33333333333334" height="16" x="266.6666666666667" y="640"></rect><rect width="133.33333333333334" height="16" x="400" y="640"></rect><rect width="133.33333333333334" height="16" x="533.3333333333334" y="640"></rect><rect width="133.33333333333334" height="16" x="666.6666666666667" y="640"></rect><rect width="133.33333333333334" height="16" x="800.0000000000001" y="640"></rect><rect width="133.33333333333334" height="16" x="0" y="656"></rect><rect width="133.33333333333334" height="16" x="133.33333333333334" y="656"></rect><rect width="133.33333333333334" height="16" x="266.6666666666667" y="656"></rect><rect width="133.33333333333334" height="16" x="400" y="656"></rect><rect width="133.33333333333334" height="16" x="533.3333333333334" y="656"></rect><rect width="133.33333333333334" height="16" x="666.6666666666667" y="656"></rect><rect width="133.33333333333334" height="16" x="800.0000000000001" y="656"></rect><rect width="133.33333333333334" height="16" x="0" y="672"></rect><rect width="133.33333333333334" height="16" x="133.33333333333334" y="672"></rect><rect width="133.33333333333334" height="16" x="266.6666666666667" y="672"></rect><rect width="133.33333333333334" height="16" x="400" y="672"></rect><rect width="133.33333333333334" height="16" x="533.3333333333334" y="672"></rect><rect width="133.33333333333334" height="16" x="666.6666666666667" y="672"></rect><rect width="133.33333333333334" height="16" x="800.0000000000001" y="672"></rect><rect width="133.33333333333334" height="16" x="0" y="688"></rect><rect width="133.33333333333334" height="16" x="133.33333333333334" y="688"></rect><rect width="133.33333333333334" height="16" x="266.6666666666667" y="688"></rect><rect width="133.33333333333334" height="16" x="400" y="688"></rect><rect width="133.33333333333334" height="16" x="533.3333333333334" y="688"></rect><rect width="133.33333333333334" height="16" x="666.6666666666667" y="688"></rect><rect width="133.33333333333334" height="16" x="800.0000000000001" y="688"></rect><rect width="133.33333333333334" height="16" x="0" y="704"></rect><rect width="133.33333333333334" height="16" x="133.33333333333334" y="704"></rect><rect width="133.33333333333334" height="16" x="266.6666666666667" y="704"></rect><rect width="133.33333333333334" height="16" x="400" y="704"></rect><rect width="133.33333333333334" height="16" x="533.3333333333334" y="704"></rect><rect width="133.33333333333334" height="16" x="666.6666666666667" y="704"></rect><rect width="133.33333333333334" height="16" x="800.0000000000001" y="704"></rect><rect width="133.33333333333334" height="16" x="0" y="720"></rect><rect width="133.33333333333334" height="16" x="133.33333333333334" y="720"></rect><rect width="133.33333333333334" height="16" x="266.6666666666667" y="720"></rect><rect width="133.33333333333334" height="16" x="400" y="720"></rect><rect width="133.33333333333334" height="16" x="533.3333333333334" y="720"></rect><rect width="133.33333333333334" height="16" x="666.6666666666667" y="720"></rect><rect width="133.33333333333334" height="16" x="800.0000000000001" y="720"></rect><rect width="133.33333333333334" height="16" x="0" y="736"></rect><rect width="133.33333333333334" height="16" x="133.33333333333334" y="736"></rect><rect width="133.33333333333334" height="16" x="266.6666666666667" y="736"></rect><rect width="133.33333333333334" height="16" x="400" y="736"></rect><rect width="133.33333333333334" height="16" x="533.3333333333334" y="736"></rect><rect width="133.33333333333334" height="16" x="666.6666666666667" y="736"></rect><rect width="133.33333333333334" height="16" x="800.0000000000001" y="736"></rect><rect width="133.33333333333334" height="16" x="0" y="752"></rect><rect width="133.33333333333334" height="16" x="133.33333333333334" y="752"></rect><rect width="133.33333333333334" height="16" x="266.6666666666667" y="752"></rect><rect width="133.33333333333334" height="16" x="400" y="752"></rect><rect width="133.33333333333334" height="16" x="533.3333333333334" y="752"></rect><rect width="133.33333333333334" height="16" x="666.6666666666667" y="752"></rect><rect width="133.33333333333334" height="16" x="800.0000000000001" y="752"></rect><rect width="133.33333333333334" height="16" x="0" y="768"></rect><rect width="133.33333333333334" height="16" x="133.33333333333334" y="768"></rect><rect width="133.33333333333334" height="16" x="266.6666666666667" y="768"></rect><rect width="133.33333333333334" height="16" x="400" y="768"></rect><rect width="133.33333333333334" height="16" x="533.3333333333334" y="768"></rect><rect width="133.33333333333334" height="16" x="666.6666666666667" y="768"></rect><rect width="133.33333333333334" height="16" x="800.0000000000001" y="768"></rect><rect width="133.33333333333334" height="16" x="0" y="784"></rect><rect width="133.33333333333334" height="16" x="133.33333333333334" y="784"></rect><rect width="133.33333333333334" height="16" x="266.6666666666667" y="784"></rect><rect width="133.33333333333334" height="16" x="400" y="784"></rect><rect width="133.33333333333334" height="16" x="533.3333333333334" y="784"></rect><rect width="133.33333333333334" height="16" x="666.6666666666667" y="784"></rect><rect width="133.33333333333334" height="16" x="800.0000000000001" y="784"></rect><rect width="133.33333333333334" height="16" x="0" y="800"></rect><rect width="133.33333333333334" height="16" x="133.33333333333334" y="800"></rect><rect width="133.33333333333334" height="16" x="266.6666666666667" y="800"></rect><rect width="133.33333333333334" height="16" x="400" y="800"></rect><rect width="133.33333333333334" height="16" x="533.3333333333334" y="800"></rect><rect width="133.33333333333334" height="16" x="666.6666666666667" y="800"></rect><rect width="133.33333333333334" height="16" x="800.0000000000001" y="800"></rect></g></svg>