0
SECTION
2
HEADER
9
$INSUNITS
70
4
9
$ACADVER
1
AC1014
9
$HANDSEED
5
FFFF
0
ENDSEC
0
SECTION
2
TABLES
0
TABLE
2
VPORT
5
8
100
AcDbSymbolTable
0
ENDTAB
0
TABLE
2
LTYPE
5
5
100
AcDbSymbolTable
0
LTYPE
5
14
100
AcDbSymbolTableRecord
100
AcDbLinetypeTableRecord
2
BYBLOCK
70
0
0
LTYPE
5
15
100
AcDbSymbolTableRecord
100
AcDbLinetypeTableRecord
2
BYLAYER
70
0
0
LTYPE
5
16
100
AcDbSymbolTableRecord
100
AcDbLinetypeTableRecord
2
DASHED
70
0
3
Dashed __ __ __ __ __ __ __ __ __ __ __ __ __ _
72
65
73
2
40
0.75
49
0.5
74
0
49
-0.25
74
0
0
ENDTAB
0
TABLE
2
LAYER
5
2
100
AcDbSymbolTable
70
2
0
LAYER
5
50
100
AcDbSymbolTableRecord
100
AcDbLayerTableRecord
2
0
70
0
62
7
6
CONTINUOUS
0
ENDTAB
0
TABLE
2
STYLE
5
3
100
AcDbSymbolTable
70
1
0
STYLE
5
11
100
AcDbSymbolTableRecord
100
AcDbTextStyleTableRecord
2
STANDARD
70
0
0
ENDTAB
0
TABLE
2
VIEW
5
6
100
AcDbSymbolTable
70
0
0
ENDTAB
0
TABLE
2
UCS
5
7
100
AcDbSymbolTable
70
0
0
ENDTAB
0
TABLE
2
APPID
5
9
100
AcDbSymbolTable
70
2
0
APPID
5
12
100
AcDbSymbolTableRecord
100
AcDbRegAppTableRecord
2
ACAD
70
0
0
ENDTAB
0
TABLE
2
DIMSTYLE
5
A
100
AcDbSymbolTable
70
1
0
ENDTAB
0
TABLE
2
BLOCK_RECORD
5
1
100
AcDbSymbolTable
70
1
0
BLOCK_RECORD
5
1F
100
AcDbSymbolTableRecord
100
AcDbBlockTableRecord
2
*MODEL_SPACE
0
BLOCK_RECORD
5
1B
100
AcDbSymbolTableRecord
100
AcDbBlockTableRecord
2
*PAPER_SPACE
0
ENDTAB
0
ENDSEC
0
SECTION
2
BLOCKS
0
BLOCK
5
20
100
AcDbEntity
100
AcDbBlockBegin
2
*MODEL_SPACE
0
ENDBLK
5
21
100
AcDbEntity
100
AcDbBlockEnd
0
BLOCK
5
1C
100
AcDbEntity
100
AcDbBlockBegin
2
*PAPER_SPACE
0
ENDBLK
5
1D
100
AcDbEntity
100
AcDbBlockEnd
0
ENDSEC
0
SECTION
2
ENTITIES
0
LWPOLYLINE
5
100
100
AcDbEntity
8
0
100
AcDbPolyline
90
4
70
1
43
0.0
10
225.60000000000002
20
-101.80000000000001
10
220.60000000000002
20
-101.80000000000001
10
220.60000000000002
20
-96.800000000000011
10
225.60000000000002
20
-96.800000000000011
0
LWPOLYLINE
5
101
100
AcDbEntity
8
0
100
AcDbPolyline
90
4
70
1
43
0.0
10
225.60000000000002
20
-85.250000000000028
10
220.60000000000002
20
-85.250000000000028
10
220.60000000000002
20
-80.250000000000028
10
225.60000000000002
20
-80.250000000000028
0
LWPOLYLINE
5
102
100
AcDbEntity
8
0
100
AcDbPolyline
90
4
70
1
43
0.0
10
209.05000000000001
20
-101.80000000000001
10
204.05000000000001
20
-101.80000000000001
10
204.05000000000001
20
-96.800000000000011
10
209.05000000000001
20
-96.800000000000011
0
LWPOLYLINE
5
103
100
AcDbEntity
8
0
100
AcDbPolyline
90
4
70
1
43
0.0
10
209.05000000000001
20
-52.150000000000006
10
204.05000000000001
20
-52.150000000000006
10
204.05000000000001
20
-47.150000000000006
10
209.05000000000001
20
-47.150000000000006
0
LWPOLYLINE
5
104
100
AcDbEntity
8
0
100
AcDbPolyline
90
4
70
1
43
0.0
10
258.69999999999999
20
-85.250000000000028
10
253.70000000000002
20
-85.250000000000028
10
253.70000000000002
20
-80.250000000000028
10
258.69999999999999
20
-80.250000000000028
0
LWPOLYLINE
5
105
100
AcDbEntity
8
0
100
AcDbPolyline
90
4
70
1
43
0.0
10
242.15000000000003
20
-101.80000000000001
10
237.15000000000003
20
-101.80000000000001
10
237.15000000000003
20
-96.800000000000011
10
242.15000000000003
20
-96.800000000000011
0
LWPOLYLINE
5
106
100
AcDbEntity
8
0
100
AcDbPolyline
90
4
70
1
43
0.0
10
225.60000000000002
20
-118.35000000000001
10
220.60000000000002
20
-118.35000000000001
10
220.60000000000002
20
-113.35000000000001
10
225.60000000000002
20
-113.35000000000001
0
LWPOLYLINE
5
107
100
AcDbEntity
8
0
100
AcDbPolyline
90
4
70
1
43
0.0
10
258.69999999999999
20
-118.35000000000001
10
253.70000000000002
20
-118.35000000000001
10
253.70000000000002
20
-113.35000000000001
10
258.69999999999999
20
-113.35000000000001
0
LWPOLYLINE
5
108
100
AcDbEntity
8
0
100
AcDbPolyline
90
4
70
1
43
0.0
10
275.25
20
-118.35000000000001
10
270.25
20
-118.35000000000001
10
270.25
20
-113.35000000000001
10
275.25
20
-113.35000000000001
0
LWPOLYLINE
5
109
100
AcDbEntity
8
0
100
AcDbPolyline
90
4
70
1
43
0.0
10
275.25
20
-85.250000000000028
10
270.25
20
-85.250000000000028
10
270.25
20
-80.250000000000028
10
275.25
20
-80.250000000000028
0
LWPOLYLINE
5
110
100
AcDbEntity
8
0
100
AcDbPolyline
90
4
70
1
43
0.0
10
242.15000000000003
20
-85.250000000000028
10
237.15000000000003
20
-85.250000000000028
10
237.15000000000003
20
-80.250000000000028
10
242.15000000000003
20
-80.250000000000028
0
LWPOLYLINE
5
111
100
AcDbEntity
8
0
100
AcDbPolyline
90
4
70
1
43
0.0
10
192.5
20
-118.35000000000001
10
187.5
20
-118.35000000000001
10
187.5
20
-113.35000000000001
10
192.5
20
-113.35000000000001
0
LWPOLYLINE
5
112
100
AcDbEntity
8
0
100
AcDbPolyline
90
4
70
1
43
0.0
10
258.69999999999999
20
-101.80000000000001
10
253.70000000000002
20
-101.80000000000001
10
253.70000000000002
20
-96.800000000000011
10
258.69999999999999
20
-96.800000000000011
0
LWPOLYLINE
5
113
100
AcDbEntity
8
0
100
AcDbPolyline
90
4
70
1
43
0.0
10
192.5
20
-68.700000000000017
10
187.5
20
-68.700000000000017
10
187.5
20
-63.70000000000001
10
192.5
20
-63.70000000000001
0
LWPOLYLINE
5
114
100
AcDbEntity
8
0
100
AcDbPolyline
90
4
70
1
43
0.0
10
225.60000000000002
20
-201.10000000000002
10
220.60000000000002
20
-201.10000000000002
10
220.60000000000002
20
-196.10000000000002
10
225.60000000000002
20
-196.10000000000002
0
LWPOLYLINE
5
115
100
AcDbEntity
8
0
100
AcDbPolyline
90
4
70
1
43
0.0
10
225.60000000000002
20
-68.700000000000017
10
220.60000000000002
20
-68.700000000000017
10
220.60000000000002
20
-63.70000000000001
10
225.60000000000002
20
-63.70000000000001
0
LWPOLYLINE
5
116
100
AcDbEntity
8
0
100
AcDbPolyline
90
4
70
1
43
0.0
10
275.25
20
-52.150000000000006
10
270.25
20
-52.150000000000006
10
270.25
20
-47.150000000000006
10
275.25
20
-47.150000000000006
0
LWPOLYLINE
5
117
100
AcDbEntity
8
0
100
AcDbPolyline
90
4
70
1
43
0.0
10
209.05000000000001
20
-184.55000000000001
10
204.05000000000001
20
-184.55000000000001
10
204.05000000000001
20
-179.55000000000001
10
209.05000000000001
20
-179.55000000000001
0
LWPOLYLINE
5
118
100
AcDbEntity
8
0
100
AcDbPolyline
90
4
70
1
43
0.0
10
192.5
20
-201.10000000000002
10
187.5
20
-201.10000000000002
10
187.5
20
-196.10000000000002
10
192.5
20
-196.10000000000002
0
LWPOLYLINE
5
119
100
AcDbEntity
8
0
100
AcDbPolyline
90
4
70
1
43
0.0
10
209.05000000000001
20
-201.10000000000002
10
204.05000000000001
20
-201.10000000000002
10
204.05000000000001
20
-196.10000000000002
10
209.05000000000001
20
-196.10000000000002
0
LWPOLYLINE
5
120
100
AcDbEntity
8
0
100
AcDbPolyline
90
4
70
1
43
0.0
10
242.15000000000003
20
-201.10000000000002
10
237.15000000000003
20
-201.10000000000002
10
237.15000000000003
20
-196.10000000000002
10
242.15000000000003
20
-196.10000000000002
0
LWPOLYLINE
5
121
100
AcDbEntity
8
0
100
AcDbPolyline
90
4
70
1
43
0.0
10
258.69999999999999
20
-52.150000000000006
10
253.70000000000002
20
-52.150000000000006
10
253.70000000000002
20
-47.150000000000006
10
258.69999999999999
20
-47.150000000000006
0
LWPOLYLINE
5
122
100
AcDbEntity
8
0
100
AcDbPolyline
90
4
70
1
43
0.0
10
225.60000000000002
20
-2.5
10
220.60000000000002
20
-2.5
10
220.60000000000002
20
2.5
10
225.60000000000002
20
2.5
0
LWPOLYLINE
5
123
100
AcDbEntity
8
0
100
AcDbPolyline
90
4
70
1
43
0.0
10
275.25
20
-101.80000000000001
10
270.25
20
-101.80000000000001
10
270.25
20
-96.800000000000011
10
275.25
20
-96.800000000000011
0
LWPOLYLINE
5
124
100
AcDbEntity
8
0
100
AcDbPolyline
90
4
70
1
43
0.0
10
187.5
20
2.5
10
192.5
20
2.5
10
192.5
20
-2.5
10
187.5
20
-2.5
0
LWPOLYLINE
5
125
100
AcDbEntity
8
0
100
AcDbPolyline
90
4
70
1
43
0.0
10
209.05000000000001
20
-2.5
10
204.05000000000001
20
-2.5
10
204.05000000000001
20
2.5
10
209.05000000000001
20
2.5
0
LWPOLYLINE
5
126
100
AcDbEntity
8
0
100
AcDbPolyline
90
4
70
1
43
0.0
10
209.05000000000001
20
-118.35000000000001
10
204.05000000000001
20
-118.35000000000001
10
204.05000000000001
20
-113.35000000000001
10
209.05000000000001
20
-113.35000000000001
0
LWPOLYLINE
5
127
100
AcDbEntity
8
0
100
AcDbPolyline
90
4
70
1
43
0.0
10
225.60000000000002
20
-168.00000000000006
10
220.60000000000002
20
-168.00000000000006
10
220.60000000000002
20
-163.00000000000006
10
225.60000000000002
20
-163.00000000000006
0
LWPOLYLINE
5
128
100
AcDbEntity
8
0
100
AcDbPolyline
90
4
70
1
43
0.0
10
258.69999999999999
20
-201.10000000000002
10
253.70000000000002
20
-201.10000000000002
10
253.70000000000002
20
-196.10000000000002
10
258.69999999999999
20
-196.10000000000002
0
LWPOLYLINE
5
129
100
AcDbEntity
8
0
100
AcDbPolyline
90
4
70
1
43
0.0
10
192.5
20
-101.80000000000001
10
187.5
20
-101.80000000000001
10
187.5
20
-96.800000000000011
10
192.5
20
-96.800000000000011
0
LWPOLYLINE
5
130
100
AcDbEntity
8
0
100
AcDbPolyline
90
4
70
1
43
0.0
10
275.25
20
-201.10000000000002
10
270.25
20
-201.10000000000002
10
270.25
20
-196.10000000000002
10
275.25
20
-196.10000000000002
0
LWPOLYLINE
5
131
100
AcDbEntity
8
0
100
AcDbPolyline
90
4
70
1
43
0.0
10
209.05000000000001
20
-217.65000000000003
10
204.05000000000001
20
-217.65000000000003
10
204.05000000000001
20
-212.65000000000003
10
209.05000000000001
20
-212.65000000000003
0
LWPOLYLINE
5
132
100
AcDbEntity
8
0
100
AcDbPolyline
90
4
70
1
43
0.0
10
192.5
20
-217.65000000000003
10
187.5
20
-217.65000000000003
10
187.5
20
-212.65000000000003
10
192.5
20
-212.65000000000003
0
LWPOLYLINE
5
133
100
AcDbEntity
8
0
100
AcDbPolyline
90
4
70
1
43
0.0
10
258.69999999999999
20
-217.65000000000003
10
253.70000000000002
20
-217.65000000000003
10
253.70000000000002
20
-212.65000000000003
10
258.69999999999999
20
-212.65000000000003
0
LWPOLYLINE
5
134
100
AcDbEntity
8
0
100
AcDbPolyline
90
4
70
1
43
0.0
10
225.60000000000002
20
-217.65000000000003
10
220.60000000000002
20
-217.65000000000003
10
220.60000000000002
20
-212.65000000000003
10
225.60000000000002
20
-212.65000000000003
0
LWPOLYLINE
5
135
100
AcDbEntity
8
0
100
AcDbPolyline
90
4
70
1
43
0.0
10
275.25
20
-217.65000000000003
10
270.25
20
-217.65000000000003
10
270.25
20
-212.65000000000003
10
275.25
20
-212.65000000000003
0
LWPOLYLINE
5
136
100
AcDbEntity
8
0
100
AcDbPolyline
90
4
70
1
43
0.0
10
242.15000000000003
20
-217.65000000000003
10
237.15000000000003
20
-217.65000000000003
10
237.15000000000003
20
-212.65000000000003
10
242.15000000000003
20
-212.65000000000003
0
LWPOLYLINE
5
137
100
AcDbEntity
8
0
100
AcDbPolyline
90
4
70
1
43
0.0
10
258.69999999999999
20
-234.20000000000002
10
253.70000000000002
20
-234.20000000000002
10
253.70000000000002
20
-229.20000000000002
10
258.69999999999999
20
-229.20000000000002
0
LWPOLYLINE
5
138
100
AcDbEntity
8
0
100
AcDbPolyline
90
4
70
1
43
0.0
10
192.5
20
-234.20000000000002
10
187.5
20
-234.20000000000002
10
187.5
20
-229.20000000000002
10
192.5
20
-229.20000000000002
0
LWPOLYLINE
5
139
100
AcDbEntity
8
0
100
AcDbPolyline
90
4
70
1
43
0.0
10
275.25
20
-234.20000000000002
10
270.25
20
-234.20000000000002
10
270.25
20
-229.20000000000002
10
275.25
20
-229.20000000000002
0
LWPOLYLINE
5
140
100
AcDbEntity
8
0
100
AcDbPolyline
90
4
70
1
43
0.0
10
225.60000000000002
20
-234.20000000000002
10
220.60000000000002
20
-234.20000000000002
10
220.60000000000002
20
-229.20000000000002
10
225.60000000000002
20
-229.20000000000002
0
LWPOLYLINE
5
141
100
AcDbEntity
8
0
100
AcDbPolyline
90
4
70
1
43
0.0
10
209.05000000000001
20
-234.20000000000002
10
204.05000000000001
20
-234.20000000000002
10
204.05000000000001
20
-229.20000000000002
10
209.05000000000001
20
-229.20000000000002
0
LWPOLYLINE
5
142
100
AcDbEntity
8
0
100
AcDbPolyline
90
4
70
1
43
0.0
10
242.15000000000003
20
-234.20000000000002
10
237.15000000000003
20
-234.20000000000002
10
237.15000000000003
20
-229.20000000000002
10
242.15000000000003
20
-229.20000000000002
0
LWPOLYLINE
5
143
100
AcDbEntity
8
0
100
AcDbPolyline
90
4
70
1
43
0.0
10
242.15000000000003
20
-250.75000000000003
10
237.15000000000003
20
-250.75000000000003
10
237.15000000000003
20
-245.75000000000003
10
242.15000000000003
20
-245.75000000000003
0
LWPOLYLINE
5
144
100
AcDbEntity
8
0
100
AcDbPolyline
90
4
70
1
43
0.0
10
275.25
20
-2.5
10
270.25
20
-2.5
10
270.25
20
2.5
10
275.25
20
2.5
0
LWPOLYLINE
5
145
100
AcDbEntity
8
0
100
AcDbPolyline
90
4
70
1
43
0.0
10
258.69999999999999
20
-2.5
10
253.70000000000002
20
-2.5
10
253.70000000000002
20
2.5
10
258.69999999999999
20
2.5
0
LWPOLYLINE
5
146
100
AcDbEntity
8
0
100
AcDbPolyline
90
4
70
1
43
0.0
10
242.15000000000003
20
-2.5
10
237.15000000000003
20
-2.5
10
237.15000000000003
20
2.5
10
242.15000000000003
20
2.5
0
LWPOLYLINE
5
147
100
AcDbEntity
8
0
100
AcDbPolyline
90
4
70
1
43
0.0
10
209.05000000000001
20
-35.600000000000009
10
204.05000000000001
20
-35.600000000000009
10
204.05000000000001
20
-30.600000000000005
10
209.05000000000001
20
-30.600000000000005
0
LWPOLYLINE
5
148
100
AcDbEntity
8
0
100
AcDbPolyline
90
4
70
1
43
0.0
10
275.25
20
-19.049999999999994
10
270.25
20
-19.049999999999994
10
270.25
20
-14.049999999999994
10
275.25
20
-14.049999999999994
0
LWPOLYLINE
5
149
100
AcDbEntity
8
0
100
AcDbPolyline
90
4
70
1
43
0.0
10
192.5
20
-35.600000000000009
10
187.5
20
-35.600000000000009
10
187.5
20
-30.600000000000005
10
192.5
20
-30.600000000000005
0
LWPOLYLINE
5
150
100
AcDbEntity
8
0
100
AcDbPolyline
90
4
70
1
43
0.0
10
258.69999999999999
20
-19.049999999999994
10
253.70000000000002
20
-19.049999999999994
10
253.70000000000002
20
-14.049999999999994
10
258.69999999999999
20
-14.049999999999994
0
LWPOLYLINE
5
151
100
AcDbEntity
8
0
100
AcDbPolyline
90
4
70
1
43
0.0
10
225.60000000000002
20
-184.55000000000001
10
220.60000000000002
20
-184.55000000000001
10
220.60000000000002
20
-179.55000000000001
10
225.60000000000002
20
-179.55000000000001
0
LWPOLYLINE
5
152
100
AcDbEntity
8
0
100
AcDbPolyline
90
4
70
1
43
0.0
10
258.69999999999999
20
-168.00000000000006
10
253.70000000000002
20
-168.00000000000006
10
253.70000000000002
20
-163.00000000000006
10
258.69999999999999
20
-163.00000000000006
0
LWPOLYLINE
5
153
100
AcDbEntity
8
0
100
AcDbPolyline
90
4
70
1
43
0.0
10
258.69999999999999
20
-184.55000000000001
10
253.70000000000002
20
-184.55000000000001
10
253.70000000000002
20
-179.55000000000001
10
258.69999999999999
20
-179.55000000000001
0
LWPOLYLINE
5
154
100
AcDbEntity
8
0
100
AcDbPolyline
90
4
70
1
43
0.0
10
242.15000000000003
20
-168.00000000000006
10
237.15000000000003
20
-168.00000000000006
10
237.15000000000003
20
-163.00000000000006
10
242.15000000000003
20
-163.00000000000006
0
LWPOLYLINE
5
155
100
AcDbEntity
8
0
100
AcDbPolyline
90
4
70
1
43
0.0
10
242.15000000000003
20
-184.55000000000001
10
237.15000000000003
20
-184.55000000000001
10
237.15000000000003
20
-179.55000000000001
10
242.15000000000003
20
-179.55000000000001
0
LWPOLYLINE
5
156
100
AcDbEntity
8
0
100
AcDbPolyline
90
4
70
1
43
0.0
10
275.25
20
-184.55000000000001
10
270.25
20
-184.55000000000001
10
270.25
20
-179.55000000000001
10
275.25
20
-179.55000000000001
0
LWPOLYLINE
5
157
100
AcDbEntity
8
0
100
AcDbPolyline
90
4
70
1
43
0.0
10
258.69999999999999
20
-35.600000000000009
10
253.70000000000002
20
-35.600000000000009
10
253.70000000000002
20
-30.600000000000005
10
258.69999999999999
20
-30.600000000000005
0
LWPOLYLINE
5
158
100
AcDbEntity
8
0
100
AcDbPolyline
90
4
70
1
43
0.0
10
192.5
20
-184.55000000000001
10
187.5
20
-184.55000000000001
10
187.5
20
-179.55000000000001
10
192.5
20
-179.55000000000001
0
LWPOLYLINE
5
159
100
AcDbEntity
8
0
100
AcDbPolyline
90
4
70
1
43
0.0
10
209.05000000000001
20
-168.00000000000006
10
204.05000000000001
20
-168.00000000000006
10
204.05000000000001
20
-163.00000000000006
10
209.05000000000001
20
-163.00000000000006
0
LWPOLYLINE
5
160
100
AcDbEntity
8
0
100
AcDbPolyline
90
4
70
1
43
0.0
10
275.25
20
-151.45000000000005
10
270.25
20
-151.45000000000005
10
270.25
20
-146.45000000000005
10
275.25
20
-146.45000000000005
0
LWPOLYLINE
5
161
100
AcDbEntity
8
0
100
AcDbPolyline
90
4
70
1
43
0.0
10
275.25
20
-134.90000000000003
10
270.25
20
-134.90000000000003
10
270.25
20
-129.90000000000003
10
275.25
20
-129.90000000000003
0
LWPOLYLINE
5
162
100
AcDbEntity
8
0
100
AcDbPolyline
90
4
70
1
43
0.0
10
209.05000000000001
20
-151.45000000000005
10
204.05000000000001
20
-151.45000000000005
10
204.05000000000001
20
-146.45000000000005
10
209.05000000000001
20
-146.45000000000005
0
LWPOLYLINE
5
163
100
AcDbEntity
8
0
100
AcDbPolyline
90
4
70
1
43
0.0
10
192.5
20
-168.00000000000006
10
187.5
20
-168.00000000000006
10
187.5
20
-163.00000000000006
10
192.5
20
-163.00000000000006
0
LWPOLYLINE
5
164
100
AcDbEntity
8
0
100
AcDbPolyline
90
4
70
1
43
0.0
10
258.69999999999999
20
-151.45000000000005
10
253.70000000000002
20
-151.45000000000005
10
253.70000000000002
20
-146.45000000000005
10
258.69999999999999
20
-146.45000000000005
0
LWPOLYLINE
5
165
100
AcDbEntity
8
0
100
AcDbPolyline
90
4
70
1
43
0.0
10
242.15000000000003
20
-151.45000000000005
10
237.15000000000003
20
-151.45000000000005
10
237.15000000000003
20
-146.45000000000005
10
242.15000000000003
20
-146.45000000000005
0
LWPOLYLINE
5
166
100
AcDbEntity
8
0
100
AcDbPolyline
90
4
70
1
43
0.0
10
225.60000000000002
20
-151.45000000000005
10
220.60000000000002
20
-151.45000000000005
10
220.60000000000002
20
-146.45000000000005
10
225.60000000000002
20
-146.45000000000005
0
LWPOLYLINE
5
167
100
AcDbEntity
8
0
100
AcDbPolyline
90
4
70
1
43
0.0
10
192.5
20
-151.45000000000005
10
187.5
20
-151.45000000000005
10
187.5
20
-146.45000000000005
10
192.5
20
-146.45000000000005
0
LWPOLYLINE
5
168
100
AcDbEntity
8
0
100
AcDbPolyline
90
4
70
1
43
0.0
10
242.15000000000003
20
-134.90000000000003
10
237.15000000000003
20
-134.90000000000003
10
237.15000000000003
20
-129.90000000000003
10
242.15000000000003
20
-129.90000000000003
0
LWPOLYLINE
5
169
100
AcDbEntity
8
0
100
AcDbPolyline
90
4
70
1
43
0.0
10
258.69999999999999
20
-134.90000000000003
10
253.70000000000002
20
-134.90000000000003
10
253.70000000000002
20
-129.90000000000003
10
258.69999999999999
20
-129.90000000000003
0
LWPOLYLINE
5
170
100
AcDbEntity
8
0
100
AcDbPolyline
90
4
70
1
43
0.0
10
209.05000000000001
20
-85.250000000000028
10
204.05000000000001
20
-85.250000000000028
10
204.05000000000001
20
-80.250000000000028
10
209.05000000000001
20
-80.250000000000028
0
LWPOLYLINE
5
171
100
AcDbEntity
8
0
100
AcDbPolyline
90
4
70
1
43
0.0
10
225.60000000000002
20
-134.90000000000003
10
220.60000000000002
20
-134.90000000000003
10
220.60000000000002
20
-129.90000000000003
10
225.60000000000002
20
-129.90000000000003
0
LWPOLYLINE
5
172
100
AcDbEntity
8
0
100
AcDbPolyline
90
4
70
1
43
0.0
10
242.15000000000003
20
-118.35000000000001
10
237.15000000000003
20
-118.35000000000001
10
237.15000000000003
20
-113.35000000000001
10
242.15000000000003
20
-113.35000000000001
0
LWPOLYLINE
5
173
100
AcDbEntity
8
0
100
AcDbPolyline
90
4
70
1
43
0.0
10
225.60000000000002
20
-250.75000000000003
10
220.60000000000002
20
-250.75000000000003
10
220.60000000000002
20
-245.75000000000003
10
225.60000000000002
20
-245.75000000000003
0
LWPOLYLINE
5
174
100
AcDbEntity
8
0
100
AcDbPolyline
90
4
70
1
43
0.0
10
258.69999999999999
20
-250.75000000000003
10
253.70000000000002
20
-250.75000000000003
10
253.70000000000002
20
-245.75000000000003
10
258.69999999999999
20
-245.75000000000003
0
LWPOLYLINE
5
175
100
AcDbEntity
8
0
100
AcDbPolyline
90
4
70
1
43
0.0
10
225.60000000000002
20
-52.150000000000006
10
220.60000000000002
20
-52.150000000000006
10
220.60000000000002
20
-47.150000000000006
10
225.60000000000002
20
-47.150000000000006
0
LWPOLYLINE
5
176
100
AcDbEntity
8
0
100
AcDbPolyline
90
4
70
1
43
0.0
10
192.5
20
-250.75000000000003
10
187.5
20
-250.75000000000003
10
187.5
20
-245.75000000000003
10
192.5
20
-245.75000000000003
0
LWPOLYLINE
5
177
100
AcDbEntity
8
0
100
AcDbPolyline
90
4
70
1
43
0.0
10
209.05000000000001
20
-250.75000000000003
10
204.05000000000001
20
-250.75000000000003
10
204.05000000000001
20
-245.75000000000003
10
209.05000000000001
20
-245.75000000000003
0
LWPOLYLINE
5
178
100
AcDbEntity
8
0
100
AcDbPolyline
90
4
70
1
43
0.0
10
275.25
20
-250.75000000000003
10
270.25
20
-250.75000000000003
10
270.25
20
-245.75000000000003
10
275.25
20
-245.75000000000003
0
LWPOLYLINE
5
179
100
AcDbEntity
8
0
100
AcDbPolyline
90
4
70
1
43
0.0
10
209.05000000000001
20
-134.90000000000003
10
204.05000000000001
20
-134.90000000000003
10
204.05000000000001
20
-129.90000000000003
10
209.05000000000001
20
-129.90000000000003
0
LWPOLYLINE
5
180
100
AcDbEntity
8
0
100
AcDbPolyline
90
4
70
1
43
0.0
10
192.5
20
-134.90000000000003
10
187.5
20
-134.90000000000003
10
187.5
20
-129.90000000000003
10
192.5
20
-129.90000000000003
0
LWPOLYLINE
5
181
100
AcDbEntity
8
0
100
AcDbPolyline
90
4
70
1
43
0.0
10
275.25
20
-68.700000000000017
10
270.25
20
-68.700000000000017
10
270.25
20
-63.70000000000001
10
275.25
20
-63.70000000000001
0
LWPOLYLINE
5
182
100
AcDbEntity
8
0
100
AcDbPolyline
90
4
70
1
43
0.0
10
242.15000000000003
20
-68.700000000000017
10
237.15000000000003
20
-68.700000000000017
10
237.15000000000003
20
-63.70000000000001
10
242.15000000000003
20
-63.70000000000001
0
LWPOLYLINE
5
183
100
AcDbEntity
8
0
100
AcDbPolyline
90
4
70
1
43
0.0
10
192.5
20
-52.150000000000006
10
187.5
20
-52.150000000000006
10
187.5
20
-47.150000000000006
10
192.5
20
-47.150000000000006
0
LWPOLYLINE
5
184
100
AcDbEntity
8
0
100
AcDbPolyline
90
4
70
1
43
0.0
10
242.15000000000003
20
-19.049999999999994
10
237.15000000000003
20
-19.049999999999994
10
237.15000000000003
20
-14.049999999999994
10
242.15000000000003
20
-14.049999999999994
0
LWPOLYLINE
5
185
100
AcDbEntity
8
0
100
AcDbPolyline
90
4
70
1
43
0.0
10
192.5
20
-85.250000000000028
10
187.5
20
-85.250000000000028
10
187.5
20
-80.250000000000028
10
192.5
20
-80.250000000000028
0
LWPOLYLINE
5
186
100
AcDbEntity
8
0
100
AcDbPolyline
90
4
70
1
43
0.0
10
225.60000000000002
20
-19.049999999999994
10
220.60000000000002
20
-19.049999999999994
10
220.60000000000002
20
-14.049999999999994
10
225.60000000000002
20
-14.049999999999994
0
LWPOLYLINE
5
187
100
AcDbEntity
8
0
100
AcDbPolyline
90
4
70
1
43
0.0
10
258.69999999999999
20
-68.700000000000017
10
253.70000000000002
20
-68.700000000000017
10
253.70000000000002
20
-63.70000000000001
10
258.69999999999999
20
-63.70000000000001
0
LWPOLYLINE
5
188
100
AcDbEntity
8
0
100
AcDbPolyline
90
4
70
1
43
0.0
10
192.5
20
-19.049999999999994
10
187.5
20
-19.049999999999994
10
187.5
20
-14.049999999999994
10
192.5
20
-14.049999999999994
0
LWPOLYLINE
5
189
100
AcDbEntity
8
0
100
AcDbPolyline
90
4
70
1
43
0.0
10
275.25
20
-168.00000000000006
10
270.25
20
-168.00000000000006
10
270.25
20
-163.00000000000006
10
275.25
20
-163.00000000000006
0
LWPOLYLINE
5
190
100
AcDbEntity
8
0
100
AcDbPolyline
90
4
70
1
43
0.0
10
209.05000000000001
20
-19.049999999999994
10
204.05000000000001
20
-19.049999999999994
10
204.05000000000001
20
-14.049999999999994
10
209.05000000000001
20
-14.049999999999994
0
LWPOLYLINE
5
191
100
AcDbEntity
8
0
100
AcDbPolyline
90
4
70
1
43
0.0
10
242.15000000000003
20
-52.150000000000006
10
237.15000000000003
20
-52.150000000000006
10
237.15000000000003
20
-47.150000000000006
10
242.15000000000003
20
-47.150000000000006
0
LWPOLYLINE
5
192
100
AcDbEntity
8
0
100
AcDbPolyline
90
4
70
1
43
0.0
10
275.25
20
-35.600000000000009
10
270.25
20
-35.600000000000009
10
270.25
20
-30.600000000000005
10
275.25
20
-30.600000000000005
0
LWPOLYLINE
5
193
100
AcDbEntity
8
0
100
AcDbPolyline
90
4
70
1
43
0.0
10
209.05000000000001
20
-68.700000000000017
10
204.05000000000001
20
-68.700000000000017
10
204.05000000000001
20
-63.70000000000001
10
209.05000000000001
20
-63.70000000000001
0
LWPOLYLINE
5
194
100
AcDbEntity
8
0
100
AcDbPolyline
90
4
70
1
43
0.0
10
242.15000000000003
20
-35.600000000000009
10
237.15000000000003
20
-35.600000000000009
10
237.15000000000003
20
-30.600000000000005
10
242.15000000000003
20
-30.600000000000005
0
LWPOLYLINE
5
195
100
AcDbEntity
8
0
100
AcDbPolyline
90
4
70
1
43
0.0
10
225.60000000000002
20
-35.600000000000009
10
220.60000000000002
20
-35.600000000000009
10
220.60000000000002
20
-30.600000000000005
10
225.60000000000002
20
-30.600000000000005
0
LWPOLYLINE
5
196
100
AcDbEntity
8
0
100
AcDbPolyline
90
4
70
1
43
0.0
10
185.49999999999997
20
-256.09580783582891
10
277.25
20
-256.09580783582891
10
277.25
20
4.5000000000000284
10
185.49999999999997
20
4.5000000000000284
0
LWPOLYLINE
5
197
100
AcDbEntity
8
0
100
AcDbPolyline
90
4
70
1
43
0.0
10
209.05000000000001
20
-267.30000000000007
10
204.05000000000001
20
-267.30000000000007
10
204.05000000000001
20
-262.30000000000007
10
209.05000000000001
20
-262.30000000000007
0
LWPOLYLINE
5
198
100
AcDbEntity
8
0
100
AcDbPolyline
90
4
70
1
43
0.0
10
258.69999999999999
20
-532.10000000000014
10
253.70000000000002
20
-532.10000000000014
10
253.70000000000002
20
-527.10000000000014
10
258.69999999999999
20
-527.10000000000014
0
LWPOLYLINE
5
199
100
AcDbEntity
8
0
100
AcDbPolyline
90
4
70
1
43
0.0
10
209.05000000000001
20
-283.85000000000002
10
204.05000000000001
20
-283.85000000000002
10
204.05000000000001
20
-278.85000000000002
10
209.05000000000001
20
-278.85000000000002
0
LWPOLYLINE
5
200
100
AcDbEntity
8
0
100
AcDbPolyline
90
4
70
1
43
0.0
10
258.69999999999999
20
-283.85000000000002
10
253.70000000000002
20
-283.85000000000002
10
253.70000000000002
20
-278.85000000000002
10
258.69999999999999
20
-278.85000000000002
0
LWPOLYLINE
5
201
100
AcDbEntity
8
0
100
AcDbPolyline
90
4
70
1
43
0.0
10
275.25
20
-316.95000000000005
10
270.25
20
-316.95000000000005
10
270.25
20
-311.95000000000005
10
275.25
20
-311.95000000000005
0
LWPOLYLINE
5
202
100
AcDbEntity
8
0
100
AcDbPolyline
90
4
70
1
43
0.0
10
209.05000000000001
20
-515.55000000000007
10
204.05000000000001
20
-515.55000000000007
10
204.05000000000001
20
-510.55000000000007
10
209.05000000000001
20
-510.55000000000007
0
LWPOLYLINE
5
203
100
AcDbEntity
8
0
100
AcDbPolyline
90
4
70
1
43
0.0
10
209.05000000000001
20
-316.95000000000005
10
204.05000000000001
20
-316.95000000000005
10
204.05000000000001
20
-311.95000000000005
10
209.05000000000001
20
-311.95000000000005
0
LWPOLYLINE
5
204
100
AcDbEntity
8
0
100
AcDbPolyline
90
4
70
1
43
0.0
10
192.5
20
-316.95000000000005
10
187.5
20
-316.95000000000005
10
187.5
20
-311.95000000000005
10
192.5
20
-311.95000000000005
0
LWPOLYLINE
5
205
100
AcDbEntity
8
0
100
AcDbPolyline
90
4
70
1
43
0.0
10
258.69999999999999
20
-316.95000000000005
10
253.70000000000002
20
-316.95000000000005
10
253.70000000000002
20
-311.95000000000005
10
258.69999999999999
20
-311.95000000000005
0
LWPOLYLINE
5
206
100
AcDbEntity
8
0
100
AcDbPolyline
90
4
70
1
43
0.0
10
242.15000000000003
20
-300.40000000000009
10
237.15000000000003
20
-300.40000000000009
10
237.15000000000003
20
-295.40000000000009
10
242.15000000000003
20
-295.40000000000009
0
LWPOLYLINE
5
207
100
AcDbEntity
8
0
100
AcDbPolyline
90
4
70
1
43
0.0
10
258.69999999999999
20
-300.40000000000009
10
253.70000000000002
20
-300.40000000000009
10
253.70000000000002
20
-295.40000000000009
10
258.69999999999999
20
-295.40000000000009
0
LWPOLYLINE
5
208
100
AcDbEntity
8
0
100
AcDbPolyline
90
4
70
1
43
0.0
10
225.60000000000002
20
-316.95000000000005
10
220.60000000000002
20
-316.95000000000005
10
220.60000000000002
20
-311.95000000000005
10
225.60000000000002
20
-311.95000000000005
0
LWPOLYLINE
5
209
100
AcDbEntity
8
0
100
AcDbPolyline
90
4
70
1
43
0.0
10
275.25
20
-300.40000000000009
10
270.25
20
-300.40000000000009
10
270.25
20
-295.40000000000009
10
275.25
20
-295.40000000000009
0
LWPOLYLINE
5
210
100
AcDbEntity
8
0
100
AcDbPolyline
90
4
70
1
43
0.0
10
225.60000000000002
20
-333.50000000000011
10
220.60000000000002
20
-333.50000000000011
10
220.60000000000002
20
-328.50000000000011
10
225.60000000000002
20
-328.50000000000011
0
LWPOLYLINE
5
211
100
AcDbEntity
8
0
100
AcDbPolyline
90
4
70
1
43
0.0
10
225.60000000000002
20
-350.05000000000001
10
220.60000000000002
20
-350.05000000000001
10
220.60000000000002
20
-345.05000000000001
10
225.60000000000002
20
-345.05000000000001
0
LWPOLYLINE
5
212
100
AcDbEntity
8
0
100
AcDbPolyline
90
4
70
1
43
0.0
10
192.5
20
-350.05000000000001
10
187.5
20
-350.05000000000001
10
187.5
20
-345.05000000000001
10
192.5
20
-345.05000000000001
0
LWPOLYLINE
5
213
100
AcDbEntity
8
0
100
AcDbPolyline
90
4
70
1
43
0.0
10
209.05000000000001
20
-333.50000000000011
10
204.05000000000001
20
-333.50000000000011
10
204.05000000000001
20
-328.50000000000011
10
209.05000000000001
20
-328.50000000000011
0
LWPOLYLINE
5
214
100
AcDbEntity
8
0
100
AcDbPolyline
90
4
70
1
43
0.0
10
242.15000000000003
20
-316.95000000000005
10
237.15000000000003
20
-316.95000000000005
10
237.15000000000003
20
-311.95000000000005
10
242.15000000000003
20
-311.95000000000005
0
LWPOLYLINE
5
215
100
AcDbEntity
8
0
100
AcDbPolyline
90
4
70
1
43
0.0
10
275.25
20
-333.50000000000011
10
270.25
20
-333.50000000000011
10
270.25
20
-328.50000000000011
10
275.25
20
-328.50000000000011
0
LWPOLYLINE
5
216
100
AcDbEntity
8
0
100
AcDbPolyline
90
4
70
1
43
0.0
10
209.05000000000001
20
-350.05000000000001
10
204.05000000000001
20
-350.05000000000001
10
204.05000000000001
20
-345.05000000000001
10
209.05000000000001
20
-345.05000000000001
0
LWPOLYLINE
5
217
100
AcDbEntity
8
0
100
AcDbPolyline
90
4
70
1
43
0.0
10
192.5
20
-366.60000000000002
10
187.5
20
-366.60000000000002
10
187.5
20
-361.60000000000002
10
192.5
20
-361.60000000000002
0
LWPOLYLINE
5
218
100
AcDbEntity
8
0
100
AcDbPolyline
90
4
70
1
43
0.0
10
275.25
20
-366.60000000000002
10
270.25
20
-366.60000000000002
10
270.25
20
-361.60000000000002
10
275.25
20
-361.60000000000002
0
LWPOLYLINE
5
219
100
AcDbEntity
8
0
100
AcDbPolyline
90
4
70
1
43
0.0
10
258.69999999999999
20
-449.35000000000008
10
253.70000000000002
20
-449.35000000000008
10
253.70000000000002
20
-444.35000000000008
10
258.69999999999999
20
-444.35000000000008
0
LWPOLYLINE
5
220
100
AcDbEntity
8
0
100
AcDbPolyline
90
4
70
1
43
0.0
10
192.5
20
-482.45000000000005
10
187.5
20
-482.45000000000005
10
187.5
20
-477.45000000000005
10
192.5
20
-477.45000000000005
0
LWPOLYLINE
5
221
100
AcDbEntity
8
0
100
AcDbPolyline
90
4
70
1
43
0.0
10
242.15000000000003
20
-465.90000000000003
10
237.15000000000003
20
-465.90000000000003
10
237.15000000000003
20
-460.90000000000003
10
242.15000000000003
20
-460.90000000000003
0
LWPOLYLINE
5
222
100
AcDbEntity
8
0
100
AcDbPolyline
90
4
70
1
43
0.0
10
209.05000000000001
20
-482.45000000000005
10
204.05000000000001
20
-482.45000000000005
10
204.05000000000001
20
-477.45000000000005
10
209.05000000000001
20
-477.45000000000005
0
LWPOLYLINE
5
223
100
AcDbEntity
8
0
100
AcDbPolyline
90
4
70
1
43
0.0
10
242.15000000000003
20
-482.45000000000005
10
237.15000000000003
20
-482.45000000000005
10
237.15000000000003
20
-477.45000000000005
10
242.15000000000003
20
-477.45000000000005
0
LWPOLYLINE
5
224
100
AcDbEntity
8
0
100
AcDbPolyline
90
4
70
1
43
0.0
10
258.69999999999999
20
-482.45000000000005
10
253.70000000000002
20
-482.45000000000005
10
253.70000000000002
20
-477.45000000000005
10
258.69999999999999
20
-477.45000000000005
0
LWPOLYLINE
5
225
100
AcDbEntity
8
0
100
AcDbPolyline
90
4
70
1
43
0.0
10
225.60000000000002
20
-482.45000000000005
10
220.60000000000002
20
-482.45000000000005
10
220.60000000000002
20
-477.45000000000005
10
225.60000000000002
20
-477.45000000000005
0
LWPOLYLINE
5
226
100
AcDbEntity
8
0
100
AcDbPolyline
90
4
70
1
43
0.0
10
225.60000000000002
20
-499.00000000000006
10
220.60000000000002
20
-499.00000000000006
10
220.60000000000002
20
-494.00000000000006
10
225.60000000000002
20
-494.00000000000006
0
LWPOLYLINE
5
227
100
AcDbEntity
8
0
100
AcDbPolyline
90
4
70
1
43
0.0
10
275.25
20
-482.45000000000005
10
270.25
20
-482.45000000000005
10
270.25
20
-477.45000000000005
10
275.25
20
-477.45000000000005
0
LWPOLYLINE
5
228
100
AcDbEntity
8
0
100
AcDbPolyline
90
4
70
1
43
0.0
10
192.5
20
-499.00000000000006
10
187.5
20
-499.00000000000006
10
187.5
20
-494.00000000000006
10
192.5
20
-494.00000000000006
0
LWPOLYLINE
5
229
100
AcDbEntity
8
0
100
AcDbPolyline
90
4
70
1
43
0.0
10
225.60000000000002
20
-515.55000000000007
10
220.60000000000002
20
-515.55000000000007
10
220.60000000000002
20
-510.55000000000007
10
225.60000000000002
20
-510.55000000000007
0
LWPOLYLINE
5
230
100
AcDbEntity
8
0
100
AcDbPolyline
90
4
70
1
43
0.0
10
209.05000000000001
20
-499.00000000000006
10
204.05000000000001
20
-499.00000000000006
10
204.05000000000001
20
-494.00000000000006
10
209.05000000000001
20
-494.00000000000006
0
LWPOLYLINE
5
231
100
AcDbEntity
8
0
100
AcDbPolyline
90
4
70
1
43
0.0
10
258.69999999999999
20
-499.00000000000006
10
253.70000000000002
20
-499.00000000000006
10
253.70000000000002
20
-494.00000000000006
10
258.69999999999999
20
-494.00000000000006
0
LWPOLYLINE
5
232
100
AcDbEntity
8
0
100
AcDbPolyline
90
4
70
1
43
0.0
10
192.5
20
-515.55000000000007
10
187.5
20
-515.55000000000007
10
187.5
20
-510.55000000000007
10
192.5
20
-510.55000000000007
0
LWPOLYLINE
5
233
100
AcDbEntity
8
0
100
AcDbPolyline
90
4
70
1
43
0.0
10
242.15000000000003
20
-499.00000000000006
10
237.15000000000003
20
-499.00000000000006
10
237.15000000000003
20
-494.00000000000006
10
242.15000000000003
20
-494.00000000000006
0
LWPOLYLINE
5
234
100
AcDbEntity
8
0
100
AcDbPolyline
90
4
70
1
43
0.0
10
242.15000000000003
20
-515.55000000000007
10
237.15000000000003
20
-515.55000000000007
10
237.15000000000003
20
-510.55000000000007
10
242.15000000000003
20
-510.55000000000007
0
LWPOLYLINE
5
235
100
AcDbEntity
8
0
100
AcDbPolyline
90
4
70
1
43
0.0
10
275.25
20
-499.00000000000006
10
270.25
20
-499.00000000000006
10
270.25
20
-494.00000000000006
10
275.25
20
-494.00000000000006
0
LWPOLYLINE
5
236
100
AcDbEntity
8
0
100
AcDbPolyline
90
4
70
1
43
0.0
10
258.69999999999999
20
-350.05000000000001
10
253.70000000000002
20
-350.05000000000001
10
253.70000000000002
20
-345.05000000000001
10
258.69999999999999
20
-345.05000000000001
0
LWPOLYLINE
5
237
100
AcDbEntity
8
0
100
AcDbPolyline
90
4
70
1
43
0.0
10
242.15000000000003
20
-366.60000000000002
10
237.15000000000003
20
-366.60000000000002
10
237.15000000000003
20
-361.60000000000002
10
242.15000000000003
20
-361.60000000000002
0
LWPOLYLINE
5
238
100
AcDbEntity
8
0
100
AcDbPolyline
90
4
70
1
43
0.0
10
242.15000000000003
20
-350.05000000000001
10
237.15000000000003
20
-350.05000000000001
10
237.15000000000003
20
-345.05000000000001
10
242.15000000000003
20
-345.05000000000001
0
LWPOLYLINE
5
239
100
AcDbEntity
8
0
100
AcDbPolyline
90
4
70
1
43
0.0
10
225.60000000000002
20
-366.60000000000002
10
220.60000000000002
20
-366.60000000000002
10
220.60000000000002
20
-361.60000000000002
10
225.60000000000002
20
-361.60000000000002
0
LWPOLYLINE
5
240
100
AcDbEntity
8
0
100
AcDbPolyline
90
4
70
1
43
0.0
10
275.25
20
-350.05000000000001
10
270.25
20
-350.05000000000001
10
270.25
20
-345.05000000000001
10
275.25
20
-345.05000000000001
0
LWPOLYLINE
5
241
100
AcDbEntity
8
0
100
AcDbPolyline
90
4
70
1
43
0.0
10
258.69999999999999
20
-366.60000000000002
10
253.70000000000002
20
-366.60000000000002
10
253.70000000000002
20
-361.60000000000002
10
258.69999999999999
20
-361.60000000000002
0
LWPOLYLINE
5
242
100
AcDbEntity
8
0
100
AcDbPolyline
90
4
70
1
43
0.0
10
192.5
20
-383.15000000000003
10
187.5
20
-383.15000000000003
10
187.5
20
-378.15000000000003
10
192.5
20
-378.15000000000003
0
LWPOLYLINE
5
243
100
AcDbEntity
8
0
100
AcDbPolyline
90
4
70
1
43
0.0
10
209.05000000000001
20
-383.15000000000003
10
204.05000000000001
20
-383.15000000000003
10
204.05000000000001
20
-378.15000000000003
10
209.05000000000001
20
-378.15000000000003
0
LWPOLYLINE
5
244
100
AcDbEntity
8
0
100
AcDbPolyline
90
4
70
1
43
0.0
10
275.25
20
-383.15000000000003
10
270.25
20
-383.15000000000003
10
270.25
20
-378.15000000000003
10
275.25
20
-378.15000000000003
0
LWPOLYLINE
5
245
100
AcDbEntity
8
0
100
AcDbPolyline
90
4
70
1
43
0.0
10
225.60000000000002
20
-383.15000000000003
10
220.60000000000002
20
-383.15000000000003
10
220.60000000000002
20
-378.15000000000003
10
225.60000000000002
20
-378.15000000000003
0
LWPOLYLINE
5
246
100
AcDbEntity
8
0
100
AcDbPolyline
90
4
70
1
43
0.0
10
225.60000000000002
20
-399.70000000000005
10
220.60000000000002
20
-399.70000000000005
10
220.60000000000002
20
-394.70000000000005
10
225.60000000000002
20
-394.70000000000005
0
LWPOLYLINE
5
247
100
AcDbEntity
8
0
100
AcDbPolyline
90
4
70
1
43
0.0
10
275.25
20
-399.70000000000005
10
270.25
20
-399.70000000000005
10
270.25
20
-394.70000000000005
10
275.25
20
-394.70000000000005
0
LWPOLYLINE
5
248
100
AcDbEntity
8
0
100
AcDbPolyline
90
4
70
1
43
0.0
10
192.5
20
-416.25000000000006
10
187.5
20
-416.25000000000006
10
187.5
20
-411.25000000000006
10
192.5
20
-411.25000000000006
0
LWPOLYLINE
5
249
100
AcDbEntity
8
0
100
AcDbPolyline
90
4
70
1
43
0.0
10
209.05000000000001
20
-399.70000000000005
10
204.05000000000001
20
-399.70000000000005
10
204.05000000000001
20
-394.70000000000005
10
209.05000000000001
20
-394.70000000000005
0
LWPOLYLINE
5
250
100
AcDbEntity
8
0
100
AcDbPolyline
90
4
70
1
43
0.0
10
258.69999999999999
20
-399.70000000000005
10
253.70000000000002
20
-399.70000000000005
10
253.70000000000002
20
-394.70000000000005
10
258.69999999999999
20
-394.70000000000005
0
LWPOLYLINE
5
251
100
AcDbEntity
8
0
100
AcDbPolyline
90
4
70
1
43
0.0
10
192.5
20
-399.70000000000005
10
187.5
20
-399.70000000000005
10
187.5
20
-394.70000000000005
10
192.5
20
-394.70000000000005
0
LWPOLYLINE
5
252
100
AcDbEntity
8
0
100
AcDbPolyline
90
4
70
1
43
0.0
10
258.69999999999999
20
-383.15000000000003
10
253.70000000000002
20
-383.15000000000003
10
253.70000000000002
20
-378.15000000000003
10
258.69999999999999
20
-378.15000000000003
0
LWPOLYLINE
5
253
100
AcDbEntity
8
0
100
AcDbPolyline
90
4
70
1
43
0.0
10
242.15000000000003
20
-399.70000000000005
10
237.15000000000003
20
-399.70000000000005
10
237.15000000000003
20
-394.70000000000005
10
242.15000000000003
20
-394.70000000000005
0
LWPOLYLINE
5
254
100
AcDbEntity
8
0
100
AcDbPolyline
90
4
70
1
43
0.0
10
242.15000000000003
20
-383.15000000000003
10
237.15000000000003
20
-383.15000000000003
10
237.15000000000003
20
-378.15000000000003
10
242.15000000000003
20
-378.15000000000003
0
LWPOLYLINE
5
255
100
AcDbEntity
8
0
100
AcDbPolyline
90
4
70
1
43
0.0
10
209.05000000000001
20
-416.25000000000006
10
204.05000000000001
20
-416.25000000000006
10
204.05000000000001
20
-411.25000000000006
10
209.05000000000001
20
-411.25000000000006
0
LWPOLYLINE
5
256
100
AcDbEntity
8
0
100
AcDbPolyline
90
4
70
1
43
0.0
10
192.5
20
-432.80000000000007
10
187.5
20
-432.80000000000007
10
187.5
20
-427.80000000000007
10
192.5
20
-427.80000000000007
0
LWPOLYLINE
5
257
100
AcDbEntity
8
0
100
AcDbPolyline
90
4
70
1
43
0.0
10
225.60000000000002
20
-416.25000000000006
10
220.60000000000002
20
-416.25000000000006
10
220.60000000000002
20
-411.25000000000006
10
225.60000000000002
20
-411.25000000000006
0
LWPOLYLINE
5
258
100
AcDbEntity
8
0
100
AcDbPolyline
90
4
70
1
43
0.0
10
242.15000000000003
20
-532.10000000000014
10
237.15000000000003
20
-532.10000000000014
10
237.15000000000003
20
-527.10000000000014
10
242.15000000000003
20
-527.10000000000014
0
LWPOLYLINE
5
259
100
AcDbEntity
8
0
100
AcDbPolyline
90
4
70
1
43
0.0
10
258.69999999999999
20
-515.55000000000007
10
253.70000000000002
20
-515.55000000000007
10
253.70000000000002
20
-510.55000000000007
10
258.69999999999999
20
-510.55000000000007
0
LWPOLYLINE
5
260
100
AcDbEntity
8
0
100
AcDbPolyline
90
4
70
1
43
0.0
10
192.5
20
-267.30000000000007
10
187.5
20
-267.30000000000007
10
187.5
20
-262.30000000000007
10
192.5
20
-262.30000000000007
0
LWPOLYLINE
5
261
100
AcDbEntity
8
0
100
AcDbPolyline
90
4
70
1
43
0.0
10
275.25
20
-515.55000000000007
10
270.25
20
-515.55000000000007
10
270.25
20
-510.55000000000007
10
275.25
20
-510.55000000000007
0
LWPOLYLINE
5
262
100
AcDbEntity
8
0
100
AcDbPolyline
90
4
70
1
43
0.0
10
242.15000000000003
20
-283.85000000000002
10
237.15000000000003
20
-283.85000000000002
10
237.15000000000003
20
-278.85000000000002
10
242.15000000000003
20
-278.85000000000002
0
LWPOLYLINE
5
263
100
AcDbEntity
8
0
100
AcDbPolyline
90
4
70
1
43
0.0
10
209.05000000000001
20
-300.40000000000009
10
204.05000000000001
20
-300.40000000000009
10
204.05000000000001
20
-295.40000000000009
10
209.05000000000001
20
-295.40000000000009
0
LWPOLYLINE
5
264
100
AcDbEntity
8
0
100
AcDbPolyline
90
4
70
1
43
0.0
10
192.5
20
-300.40000000000009
10
187.5
20
-300.40000000000009
10
187.5
20
-295.40000000000009
10
192.5
20
-295.40000000000009
0
LWPOLYLINE
5
265
100
AcDbEntity
8
0
100
AcDbPolyline
90
4
70
1
43
0.0
10
192.5
20
-283.85000000000002
10
187.5
20
-283.85000000000002
10
187.5
20
-278.85000000000002
10
192.5
20
-278.85000000000002
0
LWPOLYLINE
5
266
100
AcDbEntity
8
0
100
AcDbPolyline
90
4
70
1
43
0.0
10
209.05000000000001
20
-532.10000000000014
10
204.05000000000001
20
-532.10000000000014
10
204.05000000000001
20
-527.10000000000014
10
209.05000000000001
20
-527.10000000000014
0
LWPOLYLINE
5
267
100
AcDbEntity
8
0
100
AcDbPolyline
90
4
70
1
43
0.0
10
275.25
20
-532.10000000000014
10
270.25
20
-532.10000000000014
10
270.25
20
-527.10000000000014
10
275.25
20
-527.10000000000014
0
LWPOLYLINE
5
268
100
AcDbEntity
8
0
100
AcDbPolyline
90
4
70
1
43
0.0
10
192.5
20
-532.10000000000014
10
187.5
20
-532.10000000000014
10
187.5
20
-527.10000000000014
10
192.5
20
-527.10000000000014
0
LWPOLYLINE
5
269
100
AcDbEntity
8
0
100
AcDbPolyline
90
4
70
1
43
0.0
10
275.25
20
-267.30000000000007
10
270.25
20
-267.30000000000007
10
270.25
20
-262.30000000000007
10
275.25
20
-262.30000000000007
0
LWPOLYLINE
5
270
100
AcDbEntity
8
0
100
AcDbPolyline
90
4
70
1
43
0.0
10
258.69999999999999
20
-416.25000000000006
10
253.70000000000002
20
-416.25000000000006
10
253.70000000000002
20
-411.25000000000006
10
258.69999999999999
20
-411.25000000000006
0
LWPOLYLINE
5
271
100
AcDbEntity
8
0
100
AcDbPolyline
90
4
70
1
43
0.0
10
242.15000000000003
20
-267.30000000000007
10
237.15000000000003
20
-267.30000000000007
10
237.15000000000003
20
-262.30000000000007
10
242.15000000000003
20
-262.30000000000007
0
LWPOLYLINE
5
272
100
AcDbEntity
8
0
100
AcDbPolyline
90
4
70
1
43
0.0
10
225.60000000000002
20
-300.40000000000009
10
220.60000000000002
20
-300.40000000000009
10
220.60000000000002
20
-295.40000000000009
10
225.60000000000002
20
-295.40000000000009
0
LWPOLYLINE
5
273
100
AcDbEntity
8
0
100
AcDbPolyline
90
4
70
1
43
0.0
10
209.05000000000001
20
-366.60000000000002
10
204.05000000000001
20
-366.60000000000002
10
204.05000000000001
20
-361.60000000000002
10
209.05000000000001
20
-361.60000000000002
0
LWPOLYLINE
5
274
100
AcDbEntity
8
0
100
AcDbPolyline
90
4
70
1
43
0.0
10
275.25
20
-283.85000000000002
10
270.25
20
-283.85000000000002
10
270.25
20
-278.85000000000002
10
275.25
20
-278.85000000000002
0
LWPOLYLINE
5
275
100
AcDbEntity
8
0
100
AcDbPolyline
90
4
70
1
43
0.0
10
225.60000000000002
20
-267.30000000000007
10
220.60000000000002
20
-267.30000000000007
10
220.60000000000002
20
-262.30000000000007
10
225.60000000000002
20
-262.30000000000007
0
LWPOLYLINE
5
276
100
AcDbEntity
8
0
100
AcDbPolyline
90
4
70
1
43
0.0
10
225.60000000000002
20
-532.10000000000014
10
220.60000000000002
20
-532.10000000000014
10
220.60000000000002
20
-527.10000000000014
10
225.60000000000002
20
-527.10000000000014
0
LWPOLYLINE
5
277
100
AcDbEntity
8
0
100
AcDbPolyline
90
4
70
1
43
0.0
10
275.25
20
-449.35000000000008
10
270.25
20
-449.35000000000008
10
270.25
20
-444.35000000000008
10
275.25
20
-444.35000000000008
0
LWPOLYLINE
5
278
100
AcDbEntity
8
0
100
AcDbPolyline
90
4
70
1
43
0.0
10
258.69999999999999
20
-465.90000000000003
10
253.70000000000002
20
-465.90000000000003
10
253.70000000000002
20
-460.90000000000003
10
258.69999999999999
20
-460.90000000000003
0
LWPOLYLINE
5
279
100
AcDbEntity
8
0
100
AcDbPolyline
90
4
70
1
43
0.0
10
275.25
20
-465.90000000000003
10
270.25
20
-465.90000000000003
10
270.25
20
-460.90000000000003
10
275.25
20
-460.90000000000003
0
LWPOLYLINE
5
280
100
AcDbEntity
8
0
100
AcDbPolyline
90
4
70
1
43
0.0
10
192.5
20
-449.35000000000008
10
187.5
20
-449.35000000000008
10
187.5
20
-444.35000000000008
10
192.5
20
-444.35000000000008
0
LWPOLYLINE
5
281
100
AcDbEntity
8
0
100
AcDbPolyline
90
4
70
1
43
0.0
10
209.05000000000001
20
-465.90000000000003
10
204.05000000000001
20
-465.90000000000003
10
204.05000000000001
20
-460.90000000000003
10
209.05000000000001
20
-460.90000000000003
0
LWPOLYLINE
5
282
100
AcDbEntity
8
0
100
AcDbPolyline
90
4
70
1
43
0.0
10
225.60000000000002
20
-465.90000000000003
10
220.60000000000002
20
-465.90000000000003
10
220.60000000000002
20
-460.90000000000003
10
225.60000000000002
20
-460.90000000000003
0
LWPOLYLINE
5
283
100
AcDbEntity
8
0
100
AcDbPolyline
90
4
70
1
43
0.0
10
275.25
20
-432.80000000000007
10
270.25
20
-432.80000000000007
10
270.25
20
-427.80000000000007
10
275.25
20
-427.80000000000007
0
LWPOLYLINE
5
284
100
AcDbEntity
8
0
100
AcDbPolyline
90
4
70
1
43
0.0
10
209.05000000000001
20
-449.35000000000008
10
204.05000000000001
20
-449.35000000000008
10
204.05000000000001
20
-444.35000000000008
10
209.05000000000001
20
-444.35000000000008
0
LWPOLYLINE
5
285
100
AcDbEntity
8
0
100
AcDbPolyline
90
4
70
1
43
0.0
10
209.05000000000001
20
-432.80000000000007
10
204.05000000000001
20
-432.80000000000007
10
204.05000000000001
20
-427.80000000000007
10
209.05000000000001
20
-427.80000000000007
0
LWPOLYLINE
5
286
100
AcDbEntity
8
0
100
AcDbPolyline
90
4
70
1
43
0.0
10
258.69999999999999
20
-432.80000000000007
10
253.70000000000002
20
-432.80000000000007
10
253.70000000000002
20
-427.80000000000007
10
258.69999999999999
20
-427.80000000000007
0
LWPOLYLINE
5
287
100
AcDbEntity
8
0
100
AcDbPolyline
90
4
70
1
43
0.0
10
242.15000000000003
20
-449.35000000000008
10
237.15000000000003
20
-449.35000000000008
10
237.15000000000003
20
-444.35000000000008
10
242.15000000000003
20
-444.35000000000008
0
LWPOLYLINE
5
288
100
AcDbEntity
8
0
100
AcDbPolyline
90
4
70
1
43
0.0
10
225.60000000000002
20
-432.80000000000007
10
220.60000000000002
20
-432.80000000000007
10
220.60000000000002
20
-427.80000000000007
10
225.60000000000002
20
-427.80000000000007
0
LWPOLYLINE
5
289
100
AcDbEntity
8
0
100
AcDbPolyline
90
4
70
1
43
0.0
10
242.15000000000003
20
-416.25000000000006
10
237.15000000000003
20
-416.25000000000006
10
237.15000000000003
20
-411.25000000000006
10
242.15000000000003
20
-411.25000000000006
0
LWPOLYLINE
5
290
100
AcDbEntity
8
0
100
AcDbPolyline
90
4
70
1
43
0.0
10
275.25
20
-416.25000000000006
10
270.25
20
-416.25000000000006
10
270.25
20
-411.25000000000006
10
275.25
20
-411.25000000000006
0
LWPOLYLINE
5
291
100
AcDbEntity
8
0
100
AcDbPolyline
90
4
70
1
43
0.0
10
242.15000000000003
20
-432.80000000000007
10
237.15000000000003
20
-432.80000000000007
10
237.15000000000003
20
-427.80000000000007
10
242.15000000000003
20
-427.80000000000007
0
LWPOLYLINE
5
292
100
AcDbEntity
8
0
100
AcDbPolyline
90
4
70
1
43
0.0
10
225.60000000000002
20
-449.35000000000008
10
220.60000000000002
20
-449.35000000000008
10
220.60000000000002
20
-444.35000000000008
10
225.60000000000002
20
-444.35000000000008
0
LWPOLYLINE
5
293
100
AcDbEntity
8
0
100
AcDbPolyline
90
4
70
1
43
0.0
10
192.5
20
-465.90000000000003
10
187.5
20
-465.90000000000003
10
187.5
20
-460.90000000000003
10
192.5
20
-460.90000000000003
0
LWPOLYLINE
5
294
100
AcDbEntity
8
0
100
AcDbPolyline
90
4
70
1
43
0.0
10
192.5
20
-333.50000000000011
10
187.5
20
-333.50000000000011
10
187.5
20
-328.50000000000011
10
192.5
20
-328.50000000000011
0
LWPOLYLINE
5
295
100
AcDbEntity
8
0
100
AcDbPolyline
90
4
70
1
43
0.0
10
242.15000000000003
20
-333.50000000000011
10
237.15000000000003
20
-333.50000000000011
10
237.15000000000003
20
-328.50000000000011
10
242.15000000000003
20
-328.50000000000011
0
LWPOLYLINE
5
296
100
AcDbEntity
8
0
100
AcDbPolyline
90
4
70
1
43
0.0
10
258.69999999999999
20
-267.30000000000007
10
253.70000000000002
20
-267.30000000000007
10
253.70000000000002
20
-262.30000000000007
10
258.69999999999999
20
-262.30000000000007
0
LWPOLYLINE
5
297
100
AcDbEntity
8
0
100
AcDbPolyline
90
4
70
1
43
0.0
10
225.60000000000002
20
-283.85000000000002
10
220.60000000000002
20
-283.85000000000002
10
220.60000000000002
20
-278.85000000000002
10
225.60000000000002
20
-278.85000000000002
0
LWPOLYLINE
5
298
100
AcDbEntity
8
0
100
AcDbPolyline
90
4
70
1
43
0.0
10
258.69999999999999
20
-333.50000000000011
10
253.70000000000002
20
-333.50000000000011
10
253.70000000000002
20
-328.50000000000011
10
258.69999999999999
20
-328.50000000000011
0
LWPOLYLINE
5
299
100
AcDbEntity
8
0
100
AcDbPolyline
90
4
70
1
43
0.0
10
185.49999999999997
20
-538.12070350844715
10
277.25
20
-538.12070350844715
10
277.25
20
-256.09580783582891
10
185.49999999999997
20
-256.09580783582891
0
LWPOLYLINE
5
300
100
AcDbEntity
8
0
100
AcDbPolyline
90
4
70
1
43
0.0
10
275.25
20
-664.50000000000023
10
270.25
20
-664.50000000000023
10
270.25
20
-659.50000000000023
10
275.25
20
-659.50000000000023
0
LWPOLYLINE
5
301
100
AcDbEntity
8
0
100
AcDbPolyline
90
4
70
1
43
0.0
10
192.5
20
-714.15000000000009
10
187.5
20
-714.15000000000009
10
187.5
20
-709.15000000000009
10
192.5
20
-709.15000000000009
0
LWPOLYLINE
5
302
100
AcDbEntity
8
0
100
AcDbPolyline
90
4
70
1
43
0.0
10
242.15000000000003
20
-664.50000000000023
10
237.15000000000003
20
-664.50000000000023
10
237.15000000000003
20
-659.50000000000023
10
242.15000000000003
20
-659.50000000000023
0
LWPOLYLINE
5
303
100
AcDbEntity
8
0
100
AcDbPolyline
90
4
70
1
43
0.0
10
258.69999999999999
20
-647.95000000000016
10
253.70000000000002
20
-647.95000000000016
10
253.70000000000002
20
-642.95000000000016
10
258.69999999999999
20
-642.95000000000016
0
LWPOLYLINE
5
304
100
AcDbEntity
8
0
100
AcDbPolyline
90
4
70
1
43
0.0
10
275.25
20
-647.95000000000016
10
270.25
20
-647.95000000000016
10
270.25
20
-642.95000000000016
10
275.25
20
-642.95000000000016
0
LWPOLYLINE
5
305
100
AcDbEntity
8
0
100
AcDbPolyline
90
4
70
1
43
0.0
10
192.5
20
-681.05000000000007
10
187.5
20
-681.05000000000007
10
187.5
20
-676.05000000000007
10
192.5
20
-676.05000000000007
0
LWPOLYLINE
5
306
100
AcDbEntity
8
0
100
AcDbPolyline
90
4
70
1
43
0.0
10
209.05000000000001
20
-664.50000000000023
10
204.05000000000001
20
-664.50000000000023
10
204.05000000000001
20
-659.50000000000023
10
209.05000000000001
20
-659.50000000000023
0
LWPOLYLINE
5
307
100
AcDbEntity
8
0
100
AcDbPolyline
90
4
70
1
43
0.0
10
258.69999999999999
20
-681.05000000000007
10
253.70000000000002
20
-681.05000000000007
10
253.70000000000002
20
-676.05000000000007
10
258.69999999999999
20
-676.05000000000007
0
LWPOLYLINE
5
308
100
AcDbEntity
8
0
100
AcDbPolyline
90
4
70
1
43
0.0
10
225.60000000000002
20
-664.50000000000023
10
220.60000000000002
20
-664.50000000000023
10
220.60000000000002
20
-659.50000000000023
10
225.60000000000002
20
-659.50000000000023
0
LWPOLYLINE
5
309
100
AcDbEntity
8
0
100
AcDbPolyline
90
4
70
1
43
0.0
10
225.60000000000002
20
-681.05000000000007
10
220.60000000000002
20
-681.05000000000007
10
220.60000000000002
20
-676.05000000000007
10
225.60000000000002
20
-676.05000000000007
0
LWPOLYLINE
5
310
100
AcDbEntity
8
0
100
AcDbPolyline
90
4
70
1
43
0.0
10
242.15000000000003
20
-681.05000000000007
10
237.15000000000003
20
-681.05000000000007
10
237.15000000000003
20
-676.05000000000007
10
242.15000000000003
20
-676.05000000000007
0
LWPOLYLINE
5
311
100
AcDbEntity
8
0
100
AcDbPolyline
90
4
70
1
43
0.0
10
225.60000000000002
20
-647.95000000000016
10
220.60000000000002
20
-647.95000000000016
10
220.60000000000002
20
-642.95000000000016
10
225.60000000000002
20
-642.95000000000016
0
LWPOLYLINE
5
312
100
AcDbEntity
8
0
100
AcDbPolyline
90
4
70
1
43
0.0
10
242.15000000000003
20
-647.95000000000016
10
237.15000000000003
20
-647.95000000000016
10
237.15000000000003
20
-642.95000000000016
10
242.15000000000003
20
-642.95000000000016
0
LWPOLYLINE
5
313
100
AcDbEntity
8
0
100
AcDbPolyline
90
4
70
1
43
0.0
10
258.69999999999999
20
-664.50000000000023
10
253.70000000000002
20
-664.50000000000023
10
253.70000000000002
20
-659.50000000000023
10
258.69999999999999
20
-659.50000000000023
0
LWPOLYLINE
5
314
100
AcDbEntity
8
0
100
AcDbPolyline
90
4
70
1
43
0.0
10
258.69999999999999
20
-697.60000000000002
10
253.70000000000002
20
-697.60000000000002
10
253.70000000000002
20
-692.60000000000002
10
258.69999999999999
20
-692.60000000000002
0
LWPOLYLINE
5
315
100
AcDbEntity
8
0
100
AcDbPolyline
90
4
70
1
43
0.0
10
192.5
20
-664.50000000000023
10
187.5
20
-664.50000000000023
10
187.5
20
-659.50000000000023
10
192.5
20
-659.50000000000023
0
LWPOLYLINE
5
316
100
AcDbEntity
8
0
100
AcDbPolyline
90
4
70
1
43
0.0
10
275.25
20
-681.05000000000007
10
270.25
20
-681.05000000000007
10
270.25
20
-676.05000000000007
10
275.25
20
-676.05000000000007
0
LWPOLYLINE
5
317
100
AcDbEntity
8
0
100
AcDbPolyline
90
4
70
1
43
0.0
10
242.15000000000003
20
-697.60000000000002
10
237.15000000000003
20
-697.60000000000002
10
237.15000000000003
20
-692.60000000000002
10
242.15000000000003
20
-692.60000000000002
0
LWPOLYLINE
5
318
100
AcDbEntity
8
0
100
AcDbPolyline
90
4
70
1
43
0.0
10
192.5
20
-697.60000000000002
10
187.5
20
-697.60000000000002
10
187.5
20
-692.60000000000002
10
192.5
20
-692.60000000000002
0
LWPOLYLINE
5
319
100
AcDbEntity
8
0
100
AcDbPolyline
90
4
70
1
43
0.0
10
209.05000000000001
20
-697.60000000000002
10
204.05000000000001
20
-697.60000000000002
10
204.05000000000001
20
-692.60000000000002
10
209.05000000000001
20
-692.60000000000002
0
LWPOLYLINE
5
320
100
AcDbEntity
8
0
100
AcDbPolyline
90
4
70
1
43
0.0
10
275.25
20
-780.35000000000014
10
270.25
20
-780.35000000000014
10
270.25
20
-775.35000000000014
10
275.25
20
-775.35000000000014
0
LWPOLYLINE
5
321
100
AcDbEntity
8
0
100
AcDbPolyline
90
4
70
1
43
0.0
10
225.60000000000002
20
-796.90000000000009
10
220.60000000000002
20
-796.90000000000009
10
220.60000000000002
20
-791.90000000000009
10
225.60000000000002
20
-791.90000000000009
0
LWPOLYLINE
5
322
100
AcDbEntity
8
0
100
AcDbPolyline
90
4
70
1
43
0.0
10
258.69999999999999
20
-796.90000000000009
10
253.70000000000002
20
-796.90000000000009
10
253.70000000000002
20
-791.90000000000009
10
258.69999999999999
20
-791.90000000000009
0
LWPOLYLINE
5
323
100
AcDbEntity
8
0
100
AcDbPolyline
90
4
70
1
43
0.0
10
192.5
20
-598.30000000000018
10
187.5
20
-598.30000000000018
10
187.5
20
-593.30000000000018
10
192.5
20
-593.30000000000018
0
LWPOLYLINE
5
324
100
AcDbEntity
8
0
100
AcDbPolyline
90
4
70
1
43
0.0
10
242.15000000000003
20
-813.45000000000016
10
237.15000000000003
20
-813.45000000000016
10
237.15000000000003
20
-808.45000000000016
10
242.15000000000003
20
-808.45000000000016
0
LWPOLYLINE
5
325
100
AcDbEntity
8
0
100
AcDbPolyline
90
4
70
1
43
0.0
10
225.60000000000002
20
-813.45000000000016
10
220.60000000000002
20
-813.45000000000016
10
220.60000000000002
20
-808.45000000000016
10
225.60000000000002
20
-808.45000000000016
0
LWPOLYLINE
5
326
100
AcDbEntity
8
0
100
AcDbPolyline
90
4
70
1
43
0.0
10
275.25
20
-796.90000000000009
10
270.25
20
-796.90000000000009
10
270.25
20
-791.90000000000009
10
275.25
20
-791.90000000000009
0
LWPOLYLINE
5
327
100
AcDbEntity
8
0
100
AcDbPolyline
90
4
70
1
43
0.0
10
258.69999999999999
20
-813.45000000000016
10
253.70000000000002
20
-813.45000000000016
10
253.70000000000002
20
-808.45000000000016
10
258.69999999999999
20
-808.45000000000016
0
LWPOLYLINE
5
328
100
AcDbEntity
8
0
100
AcDbPolyline
90
4
70
1
43
0.0
10
192.5
20
-796.90000000000009
10
187.5
20
-796.90000000000009
10
187.5
20
-791.90000000000009
10
192.5
20
-791.90000000000009
0
LWPOLYLINE
5
329
100
AcDbEntity
8
0
100
AcDbPolyline
90
4
70
1
43
0.0
10
242.15000000000003
20
-796.90000000000009
10
237.15000000000003
20
-796.90000000000009
10
237.15000000000003
20
-791.90000000000009
10
242.15000000000003
20
-791.90000000000009
0
LWPOLYLINE
5
330
100
AcDbEntity
8
0
100
AcDbPolyline
90
4
70
1
43
0.0
10
275.25
20
-813.45000000000016
10
270.25
20
-813.45000000000016
10
270.25
20
-808.45000000000016
10
275.25
20
-808.45000000000016
0
LWPOLYLINE
5
331
100
AcDbEntity
8
0
100
AcDbPolyline
90
4
70
1
43
0.0
10
209.05000000000001
20
-796.90000000000009
10
204.05000000000001
20
-796.90000000000009
10
204.05000000000001
20
-791.90000000000009
10
209.05000000000001
20
-791.90000000000009
0
LWPOLYLINE
5
332
100
AcDbEntity
8
0
100
AcDbPolyline
90
4
70
1
43
0.0
10
192.5
20
-813.45000000000016
10
187.5
20
-813.45000000000016
10
187.5
20
-808.45000000000016
10
192.5
20
-808.45000000000016
0
LWPOLYLINE
5
333
100
AcDbEntity
8
0
100
AcDbPolyline
90
4
70
1
43
0.0
10
242.15000000000003
20
-598.30000000000018
10
237.15000000000003
20
-598.30000000000018
10
237.15000000000003
20
-593.30000000000018
10
242.15000000000003
20
-593.30000000000018
0
LWPOLYLINE
5
334
100
AcDbEntity
8
0
100
AcDbPolyline
90
4
70
1
43
0.0
10
258.69999999999999
20
-598.30000000000018
10
253.70000000000002
20
-598.30000000000018
10
253.70000000000002
20
-593.30000000000018
10
258.69999999999999
20
-593.30000000000018
0
LWPOLYLINE
5
335
100
AcDbEntity
8
0
100
AcDbPolyline
90
4
70
1
43
0.0
10
225.60000000000002
20
-598.30000000000018
10
220.60000000000002
20
-598.30000000000018
10
220.60000000000002
20
-593.30000000000018
10
225.60000000000002
20
-593.30000000000018
0
LWPOLYLINE
5
336
100
AcDbEntity
8
0
100
AcDbPolyline
90
4
70
1
43
0.0
10
209.05000000000001
20
-813.45000000000016
10
204.05000000000001
20
-813.45000000000016
10
204.05000000000001
20
-808.45000000000016
10
209.05000000000001
20
-808.45000000000016
0
LWPOLYLINE
5
337
100
AcDbEntity
8
0
100
AcDbPolyline
90
4
70
1
43
0.0
10
258.69999999999999
20
-614.85000000000002
10
253.70000000000002
20
-614.85000000000002
10
253.70000000000002
20
-609.85000000000002
10
258.69999999999999
20
-609.85000000000002
0
LWPOLYLINE
5
338
100
AcDbEntity
8
0
100
AcDbPolyline
90
4
70
1
43
0.0
10
275.25
20
-631.40000000000009
10
270.25
20
-631.40000000000009
10
270.25
20
-626.40000000000009
10
275.25
20
-626.40000000000009
0
LWPOLYLINE
5
339
100
AcDbEntity
8
0
100
AcDbPolyline
90
4
70
1
43
0.0
10
209.05000000000001
20
-614.85000000000002
10
204.05000000000001
20
-614.85000000000002
10
204.05000000000001
20
-609.85000000000002
10
209.05000000000001
20
-609.85000000000002
0
LWPOLYLINE
5
340
100
AcDbEntity
8
0
100
AcDbPolyline
90
4
70
1
43
0.0
10
209.05000000000001
20
-631.40000000000009
10
204.05000000000001
20
-631.40000000000009
10
204.05000000000001
20
-626.40000000000009
10
209.05000000000001
20
-626.40000000000009
0
LWPOLYLINE
5
341
100
AcDbEntity
8
0
100
AcDbPolyline
90
4
70
1
43
0.0
10
275.25
20
-614.85000000000002
10
270.25
20
-614.85000000000002
10
270.25
20
-609.85000000000002
10
275.25
20
-609.85000000000002
0
LWPOLYLINE
5
342
100
AcDbEntity
8
0
100
AcDbPolyline
90
4
70
1
43
0.0
10
258.69999999999999
20
-631.40000000000009
10
253.70000000000002
20
-631.40000000000009
10
253.70000000000002
20
-626.40000000000009
10
258.69999999999999
20
-626.40000000000009
0
LWPOLYLINE
5
343
100
AcDbEntity
8
0
100
AcDbPolyline
90
4
70
1
43
0.0
10
209.05000000000001
20
-598.30000000000018
10
204.05000000000001
20
-598.30000000000018
10
204.05000000000001
20
-593.30000000000018
10
209.05000000000001
20
-593.30000000000018
0
LWPOLYLINE
5
344
100
AcDbEntity
8
0
100
AcDbPolyline
90
4
70
1
43
0.0
10
192.5
20
-614.85000000000002
10
187.5
20
-614.85000000000002
10
187.5
20
-609.85000000000002
10
192.5
20
-609.85000000000002
0
LWPOLYLINE
5
345
100
AcDbEntity
8
0
100
AcDbPolyline
90
4
70
1
43
0.0
10
192.5
20
-631.40000000000009
10
187.5
20
-631.40000000000009
10
187.5
20
-626.40000000000009
10
192.5
20
-626.40000000000009
0
LWPOLYLINE
5
346
100
AcDbEntity
8
0
100
AcDbPolyline
90
4
70
1
43
0.0
10
192.5
20
-647.95000000000016
10
187.5
20
-647.95000000000016
10
187.5
20
-642.95000000000016
10
192.5
20
-642.95000000000016
0
LWPOLYLINE
5
347
100
AcDbEntity
8
0
100
AcDbPolyline
90
4
70
1
43
0.0
10
242.15000000000003
20
-631.40000000000009
10
237.15000000000003
20
-631.40000000000009
10
237.15000000000003
20
-626.40000000000009
10
242.15000000000003
20
-626.40000000000009
0
LWPOLYLINE
5
348
100
AcDbEntity
8
0
100
AcDbPolyline
90
4
70
1
43
0.0
10
242.15000000000003
20
-614.85000000000002
10
237.15000000000003
20
-614.85000000000002
10
237.15000000000003
20
-609.85000000000002
10
242.15000000000003
20
-609.85000000000002
0
LWPOLYLINE
5
349
100
AcDbEntity
8
0
100
AcDbPolyline
90
4
70
1
43
0.0
10
209.05000000000001
20
-647.95000000000016
10
204.05000000000001
20
-647.95000000000016
10
204.05000000000001
20
-642.95000000000016
10
209.05000000000001
20
-642.95000000000016
0
LWPOLYLINE
5
350
100
AcDbEntity
8
0
100
AcDbPolyline
90
4
70
1
43
0.0
10
225.60000000000002
20
-631.40000000000009
10
220.60000000000002
20
-631.40000000000009
10
220.60000000000002
20
-626.40000000000009
10
225.60000000000002
20
-626.40000000000009
0
LWPOLYLINE
5
351
100
AcDbEntity
8
0
100
AcDbPolyline
90
4
70
1
43
0.0
10
225.60000000000002
20
-614.85000000000002
10
220.60000000000002
20
-614.85000000000002
10
220.60000000000002
20
-609.85000000000002
10
225.60000000000002
20
-609.85000000000002
0
LWPOLYLINE
5
352
100
AcDbEntity
8
0
100
AcDbPolyline
90
4
70
1
43
0.0
10
275.25
20
-598.30000000000018
10
270.25
20
-598.30000000000018
10
270.25
20
-593.30000000000018
10
275.25
20
-593.30000000000018
0
LWPOLYLINE
5
353
100
AcDbEntity
8
0
100
AcDbPolyline
90
4
70
1
43
0.0
10
225.60000000000002
20
-697.60000000000002
10
220.60000000000002
20
-697.60000000000002
10
220.60000000000002
20
-692.60000000000002
10
225.60000000000002
20
-692.60000000000002
0
LWPOLYLINE
5
354
100
AcDbEntity
8
0
100
AcDbPolyline
90
4
70
1
43
0.0
10
209.05000000000001
20
-681.05000000000007
10
204.05000000000001
20
-681.05000000000007
10
204.05000000000001
20
-676.05000000000007
10
209.05000000000001
20
-676.05000000000007
0
LWPOLYLINE
5
355
100
AcDbEntity
8
0
100
AcDbPolyline
90
4
70
1
43
0.0
10
225.60000000000002
20
-714.15000000000009
10
220.60000000000002
20
-714.15000000000009
10
220.60000000000002
20
-709.15000000000009
10
225.60000000000002
20
-709.15000000000009
0
LWPOLYLINE
5
356
100
AcDbEntity
8
0
100
AcDbPolyline
90
4
70
1
43
0.0
10
242.15000000000003
20
-714.15000000000009
10
237.15000000000003
20
-714.15000000000009
10
237.15000000000003
20
-709.15000000000009
10
242.15000000000003
20
-709.15000000000009
0
LWPOLYLINE
5
357
100
AcDbEntity
8
0
100
AcDbPolyline
90
4
70
1
43
0.0
10
225.60000000000002
20
-730.70000000000005
10
220.60000000000002
20
-730.70000000000005
10
220.60000000000002
20
-725.70000000000005
10
225.60000000000002
20
-725.70000000000005
0
LWPOLYLINE
5
358
100
AcDbEntity
8
0
100
AcDbPolyline
90
4
70
1
43
0.0
10
209.05000000000001
20
-730.70000000000005
10
204.05000000000001
20
-730.70000000000005
10
204.05000000000001
20
-725.70000000000005
10
209.05000000000001
20
-725.70000000000005
0
LWPOLYLINE
5
359
100
AcDbEntity
8
0
100
AcDbPolyline
90
4
70
1
43
0.0
10
242.15000000000003
20
-730.70000000000005
10
237.15000000000003
20
-730.70000000000005
10
237.15000000000003
20
-725.70000000000005
10
242.15000000000003
20
-725.70000000000005
0
LWPOLYLINE
5
360
100
AcDbEntity
8
0
100
AcDbPolyline
90
4
70
1
43
0.0
10
275.25
20
-730.70000000000005
10
270.25
20
-730.70000000000005
10
270.25
20
-725.70000000000005
10
275.25
20
-725.70000000000005
0
LWPOLYLINE
5
361
100
AcDbEntity
8
0
100
AcDbPolyline
90
4
70
1
43
0.0
10
192.5
20
-730.70000000000005
10
187.5
20
-730.70000000000005
10
187.5
20
-725.70000000000005
10
192.5
20
-725.70000000000005
0
LWPOLYLINE
5
362
100
AcDbEntity
8
0
100
AcDbPolyline
90
4
70
1
43
0.0
10
225.60000000000002
20
-747.25000000000011
10
220.60000000000002
20
-747.25000000000011
10
220.60000000000002
20
-742.25000000000011
10
225.60000000000002
20
-742.25000000000011
0
LWPOLYLINE
5
363
100
AcDbEntity
8
0
100
AcDbPolyline
90
4
70
1
43
0.0
10
192.5
20
-747.25000000000011
10
187.5
20
-747.25000000000011
10
187.5
20
-742.25000000000011
10
192.5
20
-742.25000000000011
0
LWPOLYLINE
5
364
100
AcDbEntity
8
0
100
AcDbPolyline
90
4
70
1
43
0.0
10
242.15000000000003
20
-747.25000000000011
10
237.15000000000003
20
-747.25000000000011
10
237.15000000000003
20
-742.25000000000011
10
242.15000000000003
20
-742.25000000000011
0
LWPOLYLINE
5
365
100
AcDbEntity
8
0
100
AcDbPolyline
90
4
70
1
43
0.0
10
209.05000000000001
20
-714.15000000000009
10
204.05000000000001
20
-714.15000000000009
10
204.05000000000001
20
-709.15000000000009
10
209.05000000000001
20
-709.15000000000009
0
LWPOLYLINE
5
366
100
AcDbEntity
8
0
100
AcDbPolyline
90
4
70
1
43
0.0
10
258.69999999999999
20
-730.70000000000005
10
253.70000000000002
20
-730.70000000000005
10
253.70000000000002
20
-725.70000000000005
10
258.69999999999999
20
-725.70000000000005
0
LWPOLYLINE
5
367
100
AcDbEntity
8
0
100
AcDbPolyline
90
4
70
1
43
0.0
10
275.25
20
-714.15000000000009
10
270.25
20
-714.15000000000009
10
270.25
20
-709.15000000000009
10
275.25
20
-709.15000000000009
0
LWPOLYLINE
5
368
100
AcDbEntity
8
0
100
AcDbPolyline
90
4
70
1
43
0.0
10
225.60000000000002
20
-780.35000000000014
10
220.60000000000002
20
-780.35000000000014
10
220.60000000000002
20
-775.35000000000014
10
225.60000000000002
20
-775.35000000000014
0
LWPOLYLINE
5
369
100
AcDbEntity
8
0
100
AcDbPolyline
90
4
70
1
43
0.0
10
258.69999999999999
20
-714.15000000000009
10
253.70000000000002
20
-714.15000000000009
10
253.70000000000002
20
-709.15000000000009
10
258.69999999999999
20
-709.15000000000009
0
LWPOLYLINE
5
370
100
AcDbEntity
8
0
100
AcDbPolyline
90
4
70
1
43
0.0
10
242.15000000000003
20
-780.35000000000014
10
237.15000000000003
20
-780.35000000000014
10
237.15000000000003
20
-775.35000000000014
10
242.15000000000003
20
-775.35000000000014
0
LWPOLYLINE
5
371
100
AcDbEntity
8
0
100
AcDbPolyline
90
4
70
1
43
0.0
10
192.5
20
-780.35000000000014
10
187.5
20
-780.35000000000014
10
187.5
20
-775.35000000000014
10
192.5
20
-775.35000000000014
0
LWPOLYLINE
5
372
100
AcDbEntity
8
0
100
AcDbPolyline
90
4
70
1
43
0.0
10
209.05000000000001
20
-763.80000000000007
10
204.05000000000001
20
-763.80000000000007
10
204.05000000000001
20
-758.80000000000007
10
209.05000000000001
20
-758.80000000000007
0
LWPOLYLINE
5
373
100
AcDbEntity
8
0
100
AcDbPolyline
90
4
70
1
43
0.0
10
209.05000000000001
20
-747.25000000000011
10
204.05000000000001
20
-747.25000000000011
10
204.05000000000001
20
-742.25000000000011
10
209.05000000000001
20
-742.25000000000011
0
LWPOLYLINE
5
374
100
AcDbEntity
8
0
100
AcDbPolyline
90
4
70
1
43
0.0
10
275.25
20
-747.25000000000011
10
270.25
20
-747.25000000000011
10
270.25
20
-742.25000000000011
10
275.25
20
-742.25000000000011
0
LWPOLYLINE
5
375
100
AcDbEntity
8
0
100
AcDbPolyline
90
4
70
1
43
0.0
10
275.25
20
-763.80000000000007
10
270.25
20
-763.80000000000007
10
270.25
20
-758.80000000000007
10
275.25
20
-758.80000000000007
0
LWPOLYLINE
5
376
100
AcDbEntity
8
0
100
AcDbPolyline
90
4
70
1
43
0.0
10
242.15000000000003
20
-763.80000000000007
10
237.15000000000003
20
-763.80000000000007
10
237.15000000000003
20
-758.80000000000007
10
242.15000000000003
20
-758.80000000000007
0
LWPOLYLINE
5
377
100
AcDbEntity
8
0
100
AcDbPolyline
90
4
70
1
43
0.0
10
209.05000000000001
20
-780.35000000000014
10
204.05000000000001
20
-780.35000000000014
10
204.05000000000001
20
-775.35000000000014
10
209.05000000000001
20
-775.35000000000014
0
LWPOLYLINE
5
378
100
AcDbEntity
8
0
100
AcDbPolyline
90
4
70
1
43
0.0
10
225.60000000000002
20
-763.80000000000007
10
220.60000000000002
20
-763.80000000000007
10
220.60000000000002
20
-758.80000000000007
10
225.60000000000002
20
-758.80000000000007
0
LWPOLYLINE
5
379
100
AcDbEntity
8
0
100
AcDbPolyline
90
4
70
1
43
0.0
10
258.69999999999999
20
-747.25000000000011
10
253.70000000000002
20
-747.25000000000011
10
253.70000000000002
20
-742.25000000000011
10
258.69999999999999
20
-742.25000000000011
0
LWPOLYLINE
5
380
100
AcDbEntity
8
0
100
AcDbPolyline
90
4
70
1
43
0.0
10
258.69999999999999
20
-780.35000000000014
10
253.70000000000002
20
-780.35000000000014
10
253.70000000000002
20
-775.35000000000014
10
258.69999999999999
20
-775.35000000000014
0
LWPOLYLINE
5
381
100
AcDbEntity
8
0
100
AcDbPolyline
90
4
70
1
43
0.0
10
258.69999999999999
20
-763.80000000000007
10
253.70000000000002
20
-763.80000000000007
10
253.70000000000002
20
-758.80000000000007
10
258.69999999999999
20
-758.80000000000007
0
LWPOLYLINE
5
382
100
AcDbEntity
8
0
100
AcDbPolyline
90
4
70
1
43
0.0
10
192.5
20
-763.80000000000007
10
187.5
20
-763.80000000000007
10
187.5
20
-758.80000000000007
10
192.5
20
-758.80000000000007
0
LWPOLYLINE
5
383
100
AcDbEntity
8
0
100
AcDbPolyline
90
4
70
1
43
0.0
10
225.60000000000002
20
-548.65000000000009
10
220.60000000000002
20
-548.65000000000009
10
220.60000000000002
20
-543.65000000000009
10
225.60000000000002
20
-543.65000000000009
0
LWPOLYLINE
5
384
100
AcDbEntity
8
0
100
AcDbPolyline
90
4
70
1
43
0.0
10
209.05000000000001
20
-565.20000000000005
10
204.05000000000001
20
-565.20000000000005
10
204.05000000000001
20
-560.20000000000005
10
209.05000000000001
20
-560.20000000000005
0
LWPOLYLINE
5
385
100
AcDbEntity
8
0
100
AcDbPolyline
90
4
70
1
43
0.0
10
225.60000000000002
20
-565.20000000000005
10
220.60000000000002
20
-565.20000000000005
10
220.60000000000002
20
-560.20000000000005
10
225.60000000000002
20
-560.20000000000005
0
LWPOLYLINE
5
386
100
AcDbEntity
8
0
100
AcDbPolyline
90
4
70
1
43
0.0
10
192.5
20
-565.20000000000005
10
187.5
20
-565.20000000000005
10
187.5
20
-560.20000000000005
10
192.5
20
-560.20000000000005
0
LWPOLYLINE
5
387
100
AcDbEntity
8
0
100
AcDbPolyline
90
4
70
1
43
0.0
10
242.15000000000003
20
-548.65000000000009
10
237.15000000000003
20
-548.65000000000009
10
237.15000000000003
20
-543.65000000000009
10
242.15000000000003
20
-543.65000000000009
0
LWPOLYLINE
5
388
100
AcDbEntity
8
0
100
AcDbPolyline
90
4
70
1
43
0.0
10
192.5
20
-548.65000000000009
10
187.5
20
-548.65000000000009
10
187.5
20
-543.65000000000009
10
192.5
20
-543.65000000000009
0
LWPOLYLINE
5
389
100
AcDbEntity
8
0
100
AcDbPolyline
90
4
70
1
43
0.0
10
209.05000000000001
20
-548.65000000000009
10
204.05000000000001
20
-548.65000000000009
10
204.05000000000001
20
-543.65000000000009
10
209.05000000000001
20
-543.65000000000009
0
LWPOLYLINE
5
390
100
AcDbEntity
8
0
100
AcDbPolyline
90
4
70
1
43
0.0
10
258.69999999999999
20
-548.65000000000009
10
253.70000000000002
20
-548.65000000000009
10
253.70000000000002
20
-543.65000000000009
10
258.69999999999999
20
-543.65000000000009
0
LWPOLYLINE
5
391
100
AcDbEntity
8
0
100
AcDbPolyline
90
4
70
1
43
0.0
10
275.25
20
-697.60000000000002
10
270.25
20
-697.60000000000002
10
270.25
20
-692.60000000000002
10
275.25
20
-692.60000000000002
0
LWPOLYLINE
5
392
100
AcDbEntity
8
0
100
AcDbPolyline
90
4
70
1
43
0.0
10
275.25
20
-548.65000000000009
10
270.25
20
-548.65000000000009
10
270.25
20
-543.65000000000009
10
275.25
20
-543.65000000000009
0
LWPOLYLINE
5
393
100
AcDbEntity
8
0
100
AcDbPolyline
90
4
70
1
43
0.0
10
242.15000000000003
20
-581.75000000000011
10
237.15000000000003
20
-581.75000000000011
10
237.15000000000003
20
-576.75000000000011
10
242.15000000000003
20
-576.75000000000011
0
LWPOLYLINE
5
394
100
AcDbEntity
8
0
100
AcDbPolyline
90
4
70
1
43
0.0
10
225.60000000000002
20
-581.75000000000011
10
220.60000000000002
20
-581.75000000000011
10
220.60000000000002
20
-576.75000000000011
10
225.60000000000002
20
-576.75000000000011
0
LWPOLYLINE
5
395
100
AcDbEntity
8
0
100
AcDbPolyline
90
4
70
1
43
0.0
10
258.69999999999999
20
-581.75000000000011
10
253.70000000000002
20
-581.75000000000011
10
253.70000000000002
20
-576.75000000000011
10
258.69999999999999
20
-576.75000000000011
0
LWPOLYLINE
5
396
100
AcDbEntity
8
0
100
AcDbPolyline
90
4
70
1
43
0.0
10
275.25
20
-581.75000000000011
10
270.25
20
-581.75000000000011
10
270.25
20
-576.75000000000011
10
275.25
20
-576.75000000000011
0
LWPOLYLINE
5
397
100
AcDbEntity
8
0
100
AcDbPolyline
90
4
70
1
43
0.0
10
275.25
20
-565.20000000000005
10
270.25
20
-565.20000000000005
10
270.25
20
-560.20000000000005
10
275.25
20
-560.20000000000005
0
LWPOLYLINE
5
398
100
AcDbEntity
8
0
100
AcDbPolyline
90
4
70
1
43
0.0
10
258.69999999999999
20
-565.20000000000005
10
253.70000000000002
20
-565.20000000000005
10
253.70000000000002
20
-560.20000000000005
10
258.69999999999999
20
-560.20000000000005
0
LWPOLYLINE
5
399
100
AcDbEntity
8
0
100
AcDbPolyline
90
4
70
1
43
0.0
10
209.05000000000001
20
-581.75000000000011
10
204.05000000000001
20
-581.75000000000011
10
204.05000000000001
20
-576.75000000000011
10
209.05000000000001
20
-576.75000000000011
0
LWPOLYLINE
5
400
100
AcDbEntity
8
0
100
AcDbPolyline
90
4
70
1
43
0.0
10
242.15000000000003
20
-565.20000000000005
10
237.15000000000003
20
-565.20000000000005
10
237.15000000000003
20
-560.20000000000005
10
242.15000000000003
20
-560.20000000000005
0
LWPOLYLINE
5
401
100
AcDbEntity
8
0
100
AcDbPolyline
90
4
70
1
43
0.0
10
192.5
20
-581.75000000000011
10
187.5
20
-581.75000000000011
10
187.5
20
-576.75000000000011
10
192.5
20
-576.75000000000011
0
LWPOLYLINE
5
402
100
AcDbEntity
8
0
100
AcDbPolyline
90
4
70
1
43
0.0
10
185.49999999999997
20
-815.45000000000016
10
277.25
20
-815.45000000000016
10
277.25
20
-538.12070350844715
10
185.49999999999997
20
-538.12070350844715
0
ENDSEC
0
SECTION
2
OBJECTS
0
DICTIONARY
5
C
100
AcDbDictionary
3
ACAD_GROUP
350
D
3
ACAD_MLINESTYLE
350
17
0
DICTIONARY
5
D
100
AcDbDictionary
0
DICTIONARY
5
1A
330
C
100
AcDbDictionary
0
DICTIONARY
5
17
100
AcDbDictionary
0
ENDSEC
0
EOF
